<svg version="1.1" id="ukraine-map" xmlns="http://www.w3.org/2000/svg" xmlns:xlink="http://www.w3.org/1999/xlink" x="0px" y="0px" viewBox="644.3 22.8 1236.5 819.6" style="enable-background:new 644.3 22.8 1236.5 819.6;" xml:space="preserve">

<g id="UA-07">
    <g>
        <path id="XMLID_200_" d="M821.3,228.1c-2.8-7.3-9.5-8.4-13.7-11.2c0.4-2.4,1.6-4.9,1-6.7c-0.6-1.7-3.2-2.8-5-4.1
			c-1.1-0.8-3-1.1-3.4-2.1c-2-5.1-5.7-4.8-9.3-2.9c-3.1,1.6-4.9,0.9-6.8-1.5c-0.9-1-2.2-1.7-3.3-2.5c-1-0.7-2.2-1.3-2.9-2.3
			c-2.8-4.3-5.4-8.7-8.5-13.7c2.3,0,4.9,0.4,7.3-0.1c1.8-0.4,4.2-1.6,4.8-3.1c0.4-1-1.3-3.9-2.8-4.6c-7.5-3.7-10.8-10.2-13.3-17.8
			c-2-6.1-3-13.2-10.1-16.3c-0.7-0.3-1-1.5-1.5-2.3c-2-3-4-6-6.3-9.4c3.5-3.7,4-7.8,1-13.5c-2.2-4.1-1.4-9.8-2-15.3
			c4.7-3.5,10.1-0.8,15.3,0c2,0.3,3.8,4.3,5.5,4.1c3-0.2,6.3-1.7,8.9-3.6c4.6-3.2,8.8-7,12.9-10.8c1.6-1.5,2.9-3.6,3.6-5.8
			c2.5-8.7,4.2-10.1,13-10.6c10.1-0.6,20.3-1,30.4-2.2c4.6-0.5,9.1-2.8,13.7-4.1c1.6-0.5,3.3-0.8,4.9-0.6c5.8,0.8,11.7,1.7,17.4,3.1
			c2.6,0.6,4.8,2.5,7.9,4.2c0.3,2.3,0.9,4.9-2.8,7.6c-5.3,3.9-6.9,10.1-5.7,16.5c0.4,2.2,2.9,3.9,4.7,6.2
			c-3.8,7.3-0.1,15.7-0.7,23.9c-0.2,3.1,3.1,2.8,5.4,1.9c3.5-1.3,6.9-2.7,10.3-4c3.3,10.3,11.7,14.4,19.3,20.2
			c-1.5,1-2.7,2.4-3.8,2.4c-4.6-0.2-4.4,2.8-4.5,5.9c-0.1,4,2.5,3.5,5.2,4.2c2,0.5,3.4,3,5.7,5.1c-3.3,0.8-5.4,0.9-7,1.9
			c-1.2,0.8-2.8,3.1-2.4,4c2.3,5.3-0.2,8.9-4,11.5c-2.8,1.9-3.4,4-3.4,7.1c0,3-0.6,6-1.1,10c-2.4-1.6-4-2.4-5.3-3.6
			c-4.5-4-8.7-4.3-14.3-1.3c-3.3,1.8-6.8,4.8-10.7,0.7c-0.4-0.4-1.8,0.1-2.7,0.2c1,5.7-9.8,6.7-4.9,13.2c-4.2,0.5-7.9,0.8-11.5,1.7
			c-0.3,0.1,0.3,3.8,0.4,6.1c-3.8,2-4.1,3.6-0.7,6.8c2.7,2.5,4,5,0,7.9C837.6,223.6,829.6,224.7,821.3,228.1z"></path>
    </g>
    <text transform="matrix(1 0 0 1 804.593 144.1364)"></text>
</g>
        <g id="UA-46">
            <path id="XMLID_203_" d="M843.4,292c-4.5-0.9-6.5,1.7-7.3,5.4c-1.1,5.2-9.9,9.3-17.8,11.3c-0.2,1.9-0.3,3.8-0.5,6
		c-0.9,0-2,0.2-2.4-0.2c-5-5-10.8-0.8-16.2-1.4c-0.5-0.1-1.6,0.8-1.5,1c1.3,5.4-5.1,9.5-2.8,15.3c0.3,0.6-2,2.4-3.2,3.5
		c-1.4,1.3-3,2.5-4.6,3.8c1.2,1.1,2.4,2.1,3.5,3.2c0.6,0.6,1,1.5,1.6,2.2c1.4,1.6,2.8,3.2,4,4.6c-3.9,1.2-8.8,3.1-13.8,4.2
		c-5.3,1.1-11,0.6-16.1,2.3c-4.6,1.5-8.7,1.4-13.3,1.2c-3.4-0.2-7,1.4-7.6,6.2c-0.3,2.3-3,4.1-3.9,6.5c-1.8,4.7-3.5,9.4-4.3,14.3
		c-0.6,3.9,0.3,8,0.5,12.4c-4.7-0.1-8.3,1.9-10.6-3.1c-0.6-1.4-5.1-2-7.3-1.4c-3.5,1.1-4.9-0.3-6.3-2.9c-3.6-7.3-4-7.5-11.9-5.7
		c-1.5-1.6-3.2-3-4.3-4.8c-0.9-1.4-1.1-3.3-1.5-5s-0.6-3.5-0.9-5.3c-0.3-2.1-0.4-4.3-1.1-6.3c-0.5-1.6-1.6-3.1-2.9-4.2
		c-4.3-3.9-8.5-6.7-5.6-14.4c1.8-4.7,0.7-11.2-2.5-16.5c-1.6-2.7-2.5-6.2-2.5-9.3c0-2.7,1.4-5.7,3-7.9c9.2-12.7,18-25.9,28.2-37.8
		c8.8-10.3,19.4-19,29-28.7c3.6-3.6,6.2-8.2,9.7-11.9c1.7-1.7,4.3-2.9,6.7-3.5c2.2-0.6,4.6-0.1,7-0.1c6.6,0,8.4-1.5,10-7.8
		c0.3-1.4,1.2-3.1,2.3-3.8c3.9-2.2,5.9-4.7,2.9-9.1c-0.4-0.6-0.2-1.6-0.2-2.4c2.4,1.7,4.6,4.3,7.1,4.7c2.6,0.4,5.6-1.1,9.1-2
		c0.1,5.1,4.9,5.3,8.3,6.3c-1.6,2.5-4.2,4.6-3.9,6.4c0.3,2.4,2.8,4.5,4.5,6.8c2.9,0.5,6.4,1.1,9.8,1.9c0.8,0.2,1.8,1,2,1.7
		c1,4.6,4.4,4.4,7.8,4.2c5.6-0.3,11.1-0.8,16.6-1.3c1.5,7.4,1.5,7.4,11.2,6.7c-6.3,5.6-0.6,11.4-0.9,17.1c-0.1,2.3,4.1,5.2,6.8,7.2
		c4.5,3.2,9.3,5.9,5.9,12.6c-0.1,0.2,0.2,0.6,0.2,0.9s-0.1,0.6-0.2,1.2c-4.3,1.5-8.8,3.3-13.3,4.6
		C841.5,283.2,841.1,283.6,843.4,292z"></path>
            <text transform="matrix(1 0 0 1 735.5339 298.374)"></text>
        </g>
        <g id="UA-21">
            <path id="XMLID_189_" d="M644.3,426.3c0.3-4.7-0.4-9.4,1.1-13.1s5.4-6.3,8.1-9.5c1.2-1.3,3.2-2.6,3.3-4c0.4-5.2,3-9.7,4-14.8
		c0.9-4.6,2.7-11.1,8.1-14.7c2.2-1.5,2.8-5.4,3.7-7.4c3.1,0.7,6.4,1.7,9.8,2.1c4.6,0.6,8.6,5.1,9.8,9.5c0.9,3.2,3,6.8,5.7,8.6
		c2.5,1.7,6.4,1.2,9.8,0.5c0.3,0.2,0.7,0.4,0.8,0.6c1.3,8,7.7,10,14.2,11.6c4.3,1.1,8.9,1.3,13.1,2.7c3.1,1,5.6,3.4,8.5,5.1
		c2.4,1.4,4.9,2.7,8.5,4.6c0.1,2.6,2.6,5,6.4,7.2c2.1,1.2,2.8,5,4.8,8.9c3.5-1.2,7.9-2.6,13.1-4.4c0,2.6-0.4,4.8,0.1,6.8
		c0.8,3.2,1.2,7.3,3.4,9.1c3.2,2.6,7.5,1.8,10.4-0.9c2.8,2.6,5.5,5,8.1,7.5c3.3,3.2,6.9,6,5.3,11.8c-0.5,1.9,2.1,4.8,3.7,7.1
		c1.5,2.2,3.8,3.8,2,6.9c-1.8,3-2.5,6.2-7.6,6c-4.4-0.2-8.9,2.5-13.5,3.1c-3.5,0.5-7.7,0.7-10.6-0.9c-5.7-3-10.9-3.5-16.8-0.5
		c-3.7-6.9-10.8-4.7-16.5-5.8c-3.3-0.7-7.4-4.4-10.6,0.5c-4.1-2.5-8.2-5.2-12.3-7.6c-3-1.8-5.9-4.2-9.2-4.8
		c-3.2-0.6-4.9,2.3-5.9,5.5c-0.7,2.1-2.8,5.5-4,5.3c-2.8-0.3-6.5-1.6-8-3.8c-5.2-7.6-6.7-8.4-16.1-6.5c-1,0.2-2.9-1.3-3.7-2.4
		c-2-3.1-3.2-6.7-5.4-9.7c-1.1-1.5-3.4-2.5-5.3-2.7c-5.6-0.5-8-2.6-8.5-8.5C655.6,430.8,649.5,425.9,644.3,426.3z"></path>
            <text transform="matrix(1 0 0 1 683.5339 428.2178)"></text>
        </g>
        <g id="UA-26">
            <path id="XMLID_190_" d="M866.6,387.6c2.6,1.1,5.8,2.3,8.9,3.7c3.3,1.5,5.4,7.6,3,9.5c-5.6,4.4-2.4,9.1-1.6,14
		c0.7,4,0.8,8.2,1.2,12.8c-11.8-1.9-18.7,3.5-24.8,10.9c-1.6,1.9-3.4,3.6-5,5.5c-0.8,0.9-2.1,1.9-2.1,3c-0.4,4.7-3.7,6.9-7,9.2
		c-0.5,0.4-1.2,0.6-1.7,1c-3.9,3.4-7.3,17.9-4.8,22.6c2.7,5.3,2.7,10-0.4,13.7c-3-2.2-5.8-4.7-9-6.5c-2.6-1.5-5-2.4-5.7-6.1
		c-0.4-2.2-3.3-4-5-6c0-0.3-0.1-0.7,0-0.9c6.1-6.9,2.4-12.2-2.6-17.5c-0.8-0.9-1.5-2.6-1.2-3.7c1-4.2-0.6-7.6-3.2-10.5
		c-3.7-4-7.5-8-11.7-11.5c-1.2-1-3.9-0.6-5.9-0.3c-1.5,0.2-3.9,2.1-4.2,1.7c-1.3-1.5-2.5-3.5-2.6-5.4c-0.4-4-0.1-8.1-0.1-13.5
		c-5.4,1.9-10,3.5-13.2,4.6c-2.4-2.5-4.4-4.6-6.4-6.7c-4.3-4.5-7.7-10-14.4-11.8c-1.7-0.4-3.2-2.1-4.3-3.6c-0.8-1.1-1.1-2.8-1.1-4.2
		c0-3.7,0.1-7.4,0.4-11.2c0.1-2.3,0.1-4.8,1-6.8c2.2-4.7,4.9-9.1,7.6-13.5c0.3-0.6,1.4-1.1,2.1-1.1c5.9-0.2,11.8-0.3,17.7-0.4
		c0.6,0,1.4,0.2,1.9,0c8.6-3.8,17.9-4.5,26.8-6.8c1.5-0.4,3.4-2.6,3.5-4c0.1-1.8-1.4-3.8-2.5-5.4c-0.4-0.6-1.8-0.5-4.1-1.1
		c1.4-2.8,2.6-5.2,3.7-7.7c0.6-1.3,1.1-2.7,1.2-4.1c0.2-3.9,0.1-7.8,0.1-11.5c12.9-4.7,22.1,6.7,23.2,16.4c0.4,3.7,1.6,7.3,3,10.9
		c-1.9,7.2-1.1,11.8,2.9,14.3c-0.3,0.9-0.9,1.8-1,2.7c-0.2,4,6.7,11.5,10.8,11.7c3,0.2,5,0.8,5.3,4.5c0.2,2.7,0.9,5.5,4.8,6
		c1.2,0.1,2.6,2.5,2.9,4c1.4,6.2,2.5,6.7,8,3.2C862.7,390.4,864.4,389.1,866.6,387.6z"></path>
            <text transform="matrix(1 0 0 1 791.5339 405.5717)"></text>
        </g>
        <g id="UA-77">
            <path id="XMLID_187_" d="M960,431.3c0.4,2.3,0.9,4.8,1.6,8.6c-1.7-2.1-2.5-3-3.2-4.1c-1.8-2.8-3.5-2.5-5.3,0.1
		c-1.8,2.7-3.7,5.5-5.7,8.1c-3.5,4.5-9.3,3.1-13.9,4.8c-3.6,1.3-6,1.8-7.1,6.5c-1.1,5-4.7,9.4-7.5,13.9c-0.6,1-2.5,1.5-3.9,1.6
		c-8.2,0.7-16.5,0.3-23.9,4.8c-0.9,0.5-2.3,0.2-3.4,0.3c-8.9,0.7-17.8,1-26.6,2.1c-6.7,0.8-10.3,6-12.9,11.6
		c-2.6,5.6-5.4,7.5-12,6.9c4.4-6.8,2.7-13.5,0-20.3c-1.8-4.5,3.3-13.4,6.9-16.9c2.7-2.6,7.9-4.3,6.9-9.9c-0.1-0.4,0.1-1.1,0.4-1.4
		c4.6-4.7,8.9-9.6,13.9-13.8c3.1-2.6,7.3-3.9,11.6-2c3.1,1.4,5,0.1,5.2-3c0.3-5.2,0.2-10.5,0-15.7c-0.1-1.8-1.3-3.6-1.1-5.3
		c0.1-1.4,1.2-3.4,2.4-3.8c1.1-0.4,3.3,0.3,4.3,1.2c3.2,3,3.5,3.1,6.3,0.2c2.2,2.1,4,5,6.6,6c2.4,0.9,5.6-0.4,8.8-0.7
		c2.4,5.2,7.3,8,14.3,7.7c1.3-0.1,2.7,0.8,4,0.8c2.8,0,5.6,0.2,8.3-0.4c3.3-0.8,5.8-1.2,7.6,2.7c2.9,6.2,4.1,5.7,9.8,1.8
		c2.6-1.8,5.5-2.4,6.5-6c0.2-0.9,3.7-1.9,4.7-1.3c4.7,2.9,7.4,0.6,9.4-2.7c2.9,0.4,5.4,1,7.9,1.1c3.7,0.2,7.4,0.1,11.2-0.1
		c1.2-0.1,2.6-0.8,3.4-1.6c5.5-5.6,9.1-4.8,11.4,2.6c0.4,1.4,0.6,2.9,1,4.3c0.8,3.3-0.6,4.6-3.8,4.1c-4.2-0.7-7.4,0.3-9.5,4.4
		c-1.6,3.1-4.3,3-7.3,1.7c-4-1.7-8.1-4.5-11.8,0.8c-0.4,0.6-2.8,0.6-3.5-0.1C968.2,427.6,964.4,427.5,960,431.3z"></path>
            <text transform="matrix(1 0 0 1 861.5339 460.7679)"></text>
        </g>
        <g id="UA-61">
            <path id="XMLID_192_" d="M856.5,372.8c-2.1,0.4-4,0.7-6,1.1c-2.5-3.3-5.3-7-11.3-5.5c0.3-3.7,1.7-7.7,0.5-10.7
		c-1.1-2.7-5.1-4.2-8.3-6.6c3.1-4.1,1.6-8.4-1.5-13.1c-1.5-2.2-0.7-5.9-1.7-8.6c-1.2-3.4-3.1-6.5-4.8-9.8c-1.5-3-2.9-5.7,1.7-7.5
		c2.7-1.1,5.3-2.8,7.6-4.6c2.5-2,4.5-4.5,6.9-6.6c1.5-1.5,3-3.3,4.9-4.1c5.3-2.1,3.4-6,2.6-10c5.5-1.9,11.1-3.7,16.5-5.9
		c1.8-0.7,3.1-2.8,4.4-4.3c0.6-0.7,0.5-2,1.2-2.5c2.6-2.2,1.9-4.2,0.7-7c-0.9-2.1-0.5-5,0.2-7.3c0.8-2.7,2.6-5,3.4-6.5
		c4.2-1.1,8.2-2.2,12.2-3.3c1.4-0.4,2.9-1,4.3-0.9c4.3,0.6,7.4-1.1,9.9-4.4c4.2-5.5,9.8-4.5,15.4-3.1c1.1,0.3,2.2,0.6,4.5,1.2
		c-0.4,7,1.4,15.4-1.9,20.9c-4.9,8.1-0.1,14.5,0.8,21.2c0.5,3.5,2.7,6.5,0.5,10.2c-0.4,0.6,0,2.1,0.5,2.8c3.3,4.4,0.8,7.9-1.7,11.2
		c-2.7,3.5-3.8,6.7-1.5,10.9c3.1,5.6,5.1,11.6,5.4,18.1c0.1,1.1-0.4,2.2-0.7,3.3c-0.7,2.3-2.4,4.8-1.9,6.8
		c2.3,9.6-1.6,18.8-0.8,28.2c0.5,5.6,1.9,11.2,2.7,16.8c0.3,2,0,4.2,0.2,6.2c0.1,1.4,0.3,3,1,4.2c2.1,3.4,4.4,6.7,6.8,10.4
		c-3,0.2-5.7,0.4-9.1,0.6c2-6.2-3.1-8.1-7-10.8c-5.7-3.9-7.7,3.2-12.2,4.2c-1-1.5-1.7-3.5-3.2-4.6c-1.9-1.4-4.5-2.9-6.5-2.7
		c-4,0.4-5.7-1.3-6.1-4.7c-0.5-5.1-3.4-7.7-8-9.2c-1.5-0.5-3.6-2-3.8-3.3c-0.6-4-3.2-3.6-5.9-3.4c-0.3,0-0.6,0.2-1,0.3
		C858.2,382.2,857.5,381.7,856.5,372.8z"></path>
            <text transform="matrix(1 0 0 1 864.3486 333.2679)"></text>
        </g>
        <g id="UA-56">
            <path id="XMLID_201_" d="M848.6,231.1c2.2-1.2,3.7-1.5,4-2.3c0.8-1.8,1.9-5.3,1.4-5.6c-4.3-2.5-4.3-5.6-2.2-9.4
		c0.4-0.7,0.2-1.6,0.3-2.7c4.1-0.9,11.1,2.3,9.8-5.1c2.5-2.5,4.3-4.2,6.1-6c0,0.2,0,0.4-0.1,0.6c3.9-1.9,8-3.6,11.8-5.8
		c2.4-1.4,3.7-1.1,5.3,1c2.9,4,7.2,5.5,13.2,6.2c0.6-4.9,1.4-9.4,1.6-14c0.1-4.1,2.9-5.5,6-6c4.1-0.6,4-2.4,3.4-5.8
		c-0.5-2.7,0.7-5.7,1.1-8.9c2.8-0.5,6.1-0.5,5.6-5.3c-0.6-6.2-2.8-9.4-7.2-10.2c1.5-1.9,4-4,4.9-6.6c1.3-3.8-1.6-6-4.7-7.7
		c-2.3-1.3-4.6-2.6-6.4-4.4c-5.1-4.8-5.4-6.1-4.8-13.4c-6.2,0.6-12.2,1.1-18.8,1.7c2.1-5.3-2.4-11.4,2.3-17c0.9-1-0.1-4.9-1.5-6.3
		c-5.2-5.3-5.5-10.2,0.6-14.9c3.5-2.7,4.9-5.4,4.4-9.7c-0.4-3.9,5.2-7.2,9.8-6.5c5.8,0.9,11.7,1.5,17.5,2.3c0.6,0.1,1.4,0.3,1.7,0.7
		c4,6.3,10.4,4.7,16.2,4.8c1.7,0,3.3,0,5.4,0c0.4,5.9,4.8,5.6,8.6,4.6c4.9-1.3,9.1-0.1,13.4,1.9c3.7,1.7,7.7,3.3,11.7,4.2
		c2.4,0.5,5.1-0.4,7.7-0.7c2.7-0.2,5.6-0.8,8.2-0.4c1.2,0.2,3,2.5,3,3.8c-0.2,4.3,0.4,7.4,5.7,6.8c-1,6.5-0.7,7,5.4,6.7
		c4-0.2,8.6,1.8,12-2.6c0.6-0.7,3.7,0.5,5.6,0.9c2.4,0.6,4.7,1.4,7,2.1c-1.4,7-7.4,9-12.4,11.7c-4.5,2.4-2.8,6.4-3.6,9.8
		c-0.2,0.7,0.4,1.5,0.7,2.7c-5.3,1.4-6.7,4.3-3.5,9c0.4,0.5,0.3,1.7,0,2.3c-2.7,5-5.4,10-8.3,14.8c-0.9,1.5-2.5,3.1-4,3.6
		c-3.4,1.1-4.3,3.8-4.2,6.5c0.4,6.8-0.3,14.3,2.3,20.2c3.1,7,0,11.3-2.8,16.4c-0.5,1-0.6,2.2-1.8,2c-3.5,2-7,4-10.4,6.1
		c-0.7,0.4-1.5,1.4-2,1.3c-6.9-2.4-10.6,3.7-15.7,5.8c-0.6,0.3-1.1,1.2-1.5,1.9c-4,7.8-10.1,13.7-16.4,19.5c-0.4,0.3-0.8,1-1.1,0.9
		c-6.4-0.8-9.1,4.1-13.3,8.3c-0.1-1.3-0.3-2.6-0.4-3.9c-0.1-1.3,0.4-3.1-0.3-3.9c-0.7-0.8-2.5-0.9-3.9-1c-2.2-0.2-4.4-0.5-6.5-0.4
		c-5.5,0.2-11.5-2.8-16,3.4c-5.8,8-15,6.8-23,6.8c-7.3,0-8-0.2-8.2,6.9c-0.1,2-1.5,4.7-3.1,5.7c-1.1,0.7-4.1-0.5-5.5-1.7
		c-4.9-4.1-6.2-10.2-4-16.2C856,236.2,854.6,233,848.6,231.1z"></path>
            <text transform="matrix(1 0 0 1 929.2003 169.5508)"></text>
        </g>
        <g id="UA-68">
            <path id="XMLID_199_" d="M946.3,417.2c-2.6-1-5.9-1.6-8.5-3.3c-2.5-1.6-6.1-4.5-5.9-6.5c0.6-4.8-3.3-5.2-5.5-7.7
		c0.5-3.5,1-7.3,1.4-11c0.1-0.6,0.2-1.5-0.2-1.9c-5.3-8-3.3-16.5-2-25c0.5-3.7-0.7-7.7-1.2-11.5c-0.1-1.1-0.8-2.7-0.3-3.3
		c3.9-4.4,2.3-9,2.2-14.1c-0.1-6.2-4.8-10-5.3-15.6c-0.1-1.4,0-3,0.6-4.3c1.6-3.5,3.5-6.9,5.2-10.4c0.3-0.7,0.4-2,0-2.4
		c-3-3.4-0.4-7.3-1.1-10.8c-0.9-4.6-2.5-9.1-4.1-13.5c-1.1-3.3-1.8-6.1,2.3-7.8c0.6-0.2,1.3-0.7,1.5-1.3c1.1-4.8,1.3-10,3.2-14.4
		c1.7-3.8,4.7-8.7,8.1-9.8c7.7-2.5,11.7-8.6,17-13.5c3.2-3,6.3-6,9.3-9.1c0.8-0.8,1-2.1,1.8-2.7c2-1.4,4-2.8,6.3-3.8
		c2-0.8,4.9-0.4,6.5-1.7c4.7-3.7,11.2-0.8,13.5,3.2c0.4,0.6,0.6,1.7,0.3,2.2c-3.4,6.3-0.5,10.7,4.2,14.7c3.7,3.2,7.1,6.7,11,9.6
		c2.5,1.9,5.6,3.1,8.4,4.5c0.5-0.4,1-0.8,1.5-1.2c0.4,5.4,0.9,10.7,1.4,16.6c-0.2,0.1-1.1,0.7-1.9,0.7c-4-0.2-5.8,1-4.1,5.3
		c0.3,0.8-0.2,1.9-0.4,2.9c-0.1,0.8-0.4,1.6-0.4,2.4c0,4.1,10,15.5,14.1,16.4c1.7,0.4,3.3,1.2,5.5,2.1c-6.1,4.6-5.7,4.8-2.5,11.6
		c0.9,2-1.2,6.1-2.8,8.6c-2.9,4.4-0.9,13.7,2.3,14.8c2.1,4.6,4.2,8,5.2,11.8c1,3.7,0.8,7.7,1.2,12c-3.4,2.5-7.3,3.5-11.9,0.5
		c-2.4-1.6-5.3-2.4-7,1.3c-0.3,0.6-1.3,1.4-1.8,1.3c-4.6-0.9-5.3,3-7.6,5.4c-8.3,8.7-4.9,18.7-4.4,28.5c0.3,5.4-0.6,10.9-1.4,16.3
		c-0.1,0.9-2.4,2-3.7,2c-2.6,0.1-4.4-0.1-6.7,2.5c-2,2.3-6.9,3.6-10.2,3c-7.6-1.4-7.5-2-12.4,2c-0.4-1-0.9-1.8-0.9-2.7
		c-0.3-4.2-2.2-4.7-5.7-2.8c-3.5,1.8-7.4,2.7-10.6,4.8C947.9,413,947.1,415.8,946.3,417.2z"></path>
            <text transform="matrix(1 0 0 1 953.5339 327.54)"></text>
        </g>
        <g id="UA-18">
            <path id="XMLID_212_" d="M1014.3,123.6c6,0.4,7.2-1.9,3.9-8.9c1.8-0.3,3.4-0.9,5-0.8c2.3,0.2,5.8,2,6.5,1.1c2.3-2.6,3.7-6,5.1-9.3
		c0.5-1.2,0.2-2.8,0.3-3.4c4.8,1.3,9.4,3,14,3.5c5.6,0.6,8.6-3.5,10.9-9.1c2.8,4.2,4.8,8,7.6,11c0.9,1,4.5,0.7,6.1-0.3
		c7.6-4.7,11-3.5,13.5,5.1c1.7,6.1,5.9,8.9,11.7,8.1c1.1-3.7,1.3-7.8,3.3-10.6c1.8-2.4,5.4-4.1,8.5-4.8c3.2-0.7,5.9-1,7.6-4.5
		c0.5-1.1,4.2-1.9,4.4-1.6c2.1,3.5,4.7,7,5.4,10.9c0.5,2.7-0.2,5,2.3,7.3c2.8,2.5,5.1,5.7,6.9,9.1c1.9,3.5-0.9,6-3.7,7
		c-3.9,1.4-4.3,3.3-3,6.8c0.8,2,0.9,4.2,1.2,6.3c0.7,5.1,2.2,6.1,7.2,4.1c1,1.3,1.8,2.8,3,3.8c3.3,2.8,1.6,4.9-1,6.5
		c-3.8,2.4-4.3,5-1,8.1c3.8,3.6,7.5,7.1,5,13.2c-0.9,2.3-0.1,4.4,3.2,4.8c3.7,0.5,4.3,3,2.1,5.9c-2.1,2.8-4.3,5.6-5.7,8.7
		c-0.9,2.1-0.2,4.9-0.7,7.3c-0.7,3.3-2,6.4-2.9,9.7c-1.4,5.1,0.4,6.9,5.4,5.5c3.3-1,5-0.3,5.3,3.4c0.2,3.1,1,5.8,4.2,7.6
		c1.5,0.9,2.2,3.9,2.7,6c0.7,3.1,0.9,6.3,1.4,9.8c-5.6,6.3-2.1,13,1.1,21c-4.8,3-9.8,6.2-14.9,9.3c-2.8,1.7-5.2,3.4-4.6,7.4
		c0.2,1.3-0.9,2.7-1.1,4.2s0,3,0,6c-6.3,3.4-14.1,8.1-24.2,5.8c-0.7-3.5-3.6-7.1,0-11.2c0.5-0.5-1-2.9-1.7-4.4
		c-0.8-1.7-2.9-3.8-2.5-4.9c1.7-4.6-1.4-7.3-4.1-8.4c-2.9-1.3-7.1-2.1-9.8,2c-1.2,1.8-2.8,4.1-4.7,4.7c-3,0.8-6.4,0.6-9.7,0.5
		c-4.9-0.2-10.1-2.4-13.8,2.4c-5.4,0-10.6-0.2-15.7,0.1c-5.3,0.3-10.6,1.3-15.9,1.8c-11.3,1-20.2-6.8-19.6-17.6
		c0.1-1.4,1.2-3.1,2.4-4c3.1-2.4,5.1-4.8,1.9-8.6c-0.3-0.4-0.8-1-0.7-1.2c2.4-5.2,0.1-9.8-1.6-14.5c-0.6-1.7-1.3-4.5-2.3-4.6
		c-1.9-0.3-4.1,0.9-6.9,1.6c-4.8-4.4-10.7-9.7-16.6-15.2c0-0.2-0.1-0.7,0-0.9c4.4-3.9,4.9-6.9,0.7-12.2c-2.3-2.9-4.9-9.1-0.4-14.4
		c1.7-2.1,2.1-6.8,1-9.4c-1.4-3.3-2-6.2-1.7-9.8c0.4-4-0.2-8.3-1.1-12.3c-1.3-6.1,6.1-3.5,7.3-8.2c1.5-5.6,7.2-10.4,7.9-15.9
		c0.7-5.6,3.9-9.7,5.1-14.8C1014.1,124.5,1014.2,124.1,1014.3,123.6z"></path>
            <text transform="matrix(1 0 0 1 1056.5339 210.0854)"></text>
        </g>
        <g id="UA-32">
            <g>
                <path id="XMLID_198_" class="st0" d="M1273,273.1c-2.5,1.4-5.5,2.4-7.4,4.4c-1.8,1.8-3.4,4.7-3.4,7.1c-0.2,6.6-0.5,13-3.8,19.1
		c-1.2,2.2,0,5.7-1.3,7.7c-2.5,3.8-6.6,6.5-9,10.3c-2.9,4.7-6.8,7.2-11.8,8.5c-0.8,0.2-1.9,0.9-2.3,0.6c-4.6-3.5-9.3-1-14-0.6
		c-1.4,0.1-2.9,0.2-4.2-0.2c-3.9-1.2-5.9,0-6.8,3.9c-0.4,1.8-1.7,3.4-2.5,5.1c-2.7-1.8-7.3,0.7-8.6-4.2c-1.2-4.4-5.7-3.5-7.3-2.1
		c-6,5.6-16.2,5.6-19.6,14.7c-0.2,0.4-1.1,0.5-0.9,0.4c-6-5.2-11.5-10-18.4-16c0.4-0.8,1.4-2.7,2.4-4.7c0.4-0.7,0.9-1.4,1.2-2.2
		c1.2-2.9-1.3-13.4-3.5-15.6c-0.6-0.6-1.5-1.5-1.4-1.9c2.4-6.1-0.9-10.9-3.1-16.1c-0.5-1.2,0.5-3.9,1.7-4.8
		c4.6-3.7,9.3-7.2,14.3-10.2c4.6-2.8,4.1-5.8,1.7-9.6c-2.5-4-4-7.6,0.6-11.8c1.3-1.2,0.1-5.4-0.2-8.3c-0.3-2.2-1.7-4.4-1.5-6.4
		c0.5-4.2-2-6.8-4.1-9.7c-1.3-1.8-3.2-3.6-3.7-5.7c-0.9-3.8-2-6.8-5.8-6.1c0-5.7-0.3-11,0.2-16.4c0.2-2,2.1-4,3.7-5.6
		c4.7-4.6,2.8-13.3-2.2-14.9c-1.5-4.6-3-8.2-3.8-12.1c-0.6-2.9-1.2-6.4-0.1-8.9c2.3-4.9,2.1-8.2-2.8-11.3c-3-1.9-5.5-4.7-9.5-8.2
		c0.4-0.7,1.6-2.7,2.6-4.7c2-4.1,4-8.2,5.4-12.7c3-0.9,6.3-1.3,7.9-5.9c0.8-2.3,4.8-3.5,7.4-4.9c0.5-0.3,2.3,0.6,2.6,1.3
		c1.2,3.5,4,3.9,6.9,3.4c4.7-0.9,9.6-0.3,13.9-3.6c3.7-2.9,11.6-1.5,15.1,1.8c1.4,1.4,3.2,2.5,4.4,4c1,1.2,1.9,2.9,1.9,4.3
		c0,3.8,1.5,6.3,4.9,7.9c2.4,1.2,4.7,2.5,7.4,3.9c-2.6,4.6-4.4,9-7.2,12.8c-1.8,2.4-5,3.7-7.4,5.7c-1.4,1.2-2.4,2.9-3.6,4.3
		c1.5,0.9,3,2.6,4.6,2.7c7.2,0.4,10.3,4.4,7.6,11.6c-2.7,7.2-4.7,14.3-2.1,21.7c1,3,3.2,5.5,5.3,9c-2.5-0.2-4.9-0.5-7.2-0.5
		c-1.3,0-3.4,0.2-3.7,1c-1.9,4.3-3.6,8.7-4.8,13.3c-0.5,2-0.4,5,0.8,6.3c0.9,1,4-0.1,7.4-0.4c1,1.7,2.7,4.5,4.4,7.3
		c0.3,0.5,0.8,1.4,1.3,1.4c4.6,0.7,5.4,4.8,7.3,7.9c4.1,6.9,4.1,7,10.2,5.5c4.5,3.2,8.4,5.7,11.9,8.7c2.1,1.8,3.9,4.1,5.5,6.4
		c6.3,9.5,15.5,12.4,26.4,11.8C1272.8,272.8,1272.9,273,1273,273.1z"></path>
                <path id="XMLID_186_" class="st0" d="M1231,234.9c3.9-3.2,7.6-5.3,10-8.4c3.7-4.8-3-7.2-3.8-11.4c2.8-2,6.3-3.8,3.9-8.2
		c-1.5-2.7-8.2-4.5-11.1-3.5c-2.7,0.9-5.5,1.3-8.1,1.9c-4.7-11.7,2.9-21.1,3.1-31.4c2.8,1.4,5.6,2.9,8.5,4.3c0,0.6-0.2,1.1-0.1,1.5
		c0.5,3-5.7,6.2-0.3,8.8c2.9,1.4,6.5,1.5,9.8,1.6c2.4,0.1,4.9-1,7.4-1.2c1.8-0.2,4.3-0.7,5.4,0.2c3,2.4,5.4,5.6,7.9,8.5
		c0.2,0.3,0.1,1,0,1.4c-0.5,2.1-2.1,5-1.2,6.2c2.3,3.3,5.2,7.1,8.8,8.3c4.4,1.5,9.7,1.1,14.5,0.8c5-0.3,9.8-1.6,14.6-3.7
		c4.1-1.8,7.2-3.3,8.6-7.4c3.5,2.8,6.8,5.3,9.9,7.7c-4.3,3.2-3.8,7.1,2,12.9c3.3,3.3,6.1,7.3,3.7,12.5c-8.5,1.5-9.1,2.2-7.7,9.6
		c-4.8,3.1-10.8,5.5-7.9,13.2c0.1,0.3,0.1,0.8-0.1,1c-5.3,3.8-4.4,10.7-7.8,15.4c-1.8,2.4-3.5,4.1-5.1,0c-1.3-3.3-3.4-2.9-5.9-1.5
		c-1.3,0.7-3.3,2-4.1,1.5c-1.1-0.7-1.6-2.7-2-4.2c-0.5-2.2-0.1-5.9-1.2-6.4c-3-1.3-6.6-1.4-9.9-1.7c-0.8-0.1-2.3,0.6-2.6,1.3
		c-2.2,5.1-4.8,3.8-7.7,0.8c-0.2-0.2-0.6-0.4-0.9-0.4c-9.2,0.6-10.8-8.1-15.7-12.7c-1.7-1.6-4.6-2.3-6-4.1
		C1236.4,243.6,1233.5,238.7,1231,234.9z"></path>
            </g>
            <g>
                <path id="XMLID_182_" class="st0" d="M1225.4,241.8c-7.2-10-13.9-19.3-20.4-28.4c1.1-1.5,2.4-3.3,4.1-5.8c6.2-0.4,6.3,0.1,8.3,6.9
		c1.9,6.5,5,12.6,7.2,19C1225.4,236,1225.1,238.8,1225.4,241.8z"></path>
                <path id="XMLID_181_" class="st0" d="M1220.3,208.8c6.1,0,11.2,0,15.6,0c-1.2,2.3-3.4,4.6-3.4,6.9c0,2.5,2,5,3.6,8.4
		c-1.4,1.1-3.2,3.6-5.4,4c-2.6,0.5-6.6,0.9-6.3-4.4c0.1-2.3-1.5-4.6-2.2-7S1221,211.9,1220.3,208.8z"></path>
            </g>
            <text transform="matrix(1 0 0 1 1190.2579 293.2679)"></text>
        </g>
        <g id="UA-05">
            <path id="XMLID_210_" d="M1029.3,316.4c3.7-2.4,5.9-13.2,3.7-18.4c0.9-1.1,1.7-2.3,2.8-3.2c1.7-1.4,3.8-4,5.2-3.7
		c9.5,2.2,18.7-4.6,28.1-0.6c1,0.4,2.9-0.1,3.7-0.9c3.3-3.1,6.7-1.4,10.3-1.6c4.9-0.2,11.7,3,15.4-4.1c1.1-2.1,4-3.1,6.9-5.3
		c1.7,4.7,3.4,9.3,5.1,14.1c-1.8,2.6-4.2,5.5-0.3,8.8c0.1,0.1,0.3,0.3,0.3,0.4c-1.2,11.3,8.2,5.5,12.6,7.6c2,1,5,0.4,7.4,0.1
		c1.5-0.2,2.8-1.5,4.2-2.4c0.5-0.3,0.7-1.2,1.2-1.3c3.3-0.9,6.7-1.7,9-2.3c1.4,3.3,3.3,6.7,4.3,10.3c0.8,2.8,0.6,6,0.9,9.5
		c-5.2,5-5.2,5-2,12.3c0.3,0.6,0.7,1.5,1.1,1.5c7,1.2,7.5,8.1,10.2,12.6c1,1.7-1.8,6.5-3.9,8.9c-3.1,3.5-3.7,6.4-0.2,9.7
		c0.2,0.2,0.8,0.4,0.8,0.5c-1.7,4.7,2.3,7.2,3.8,10.7c1.7,4,2.8,8.4,4.9,12.3c0.8,1.4,3.4,1.9,5.8,3.1c-0.3,3.8,1.5,6.6,5.6,9.4
		c2.9,2,5.3,7.6,4.8,11.1c-0.5,3.1-2.7,7.1-7.1,9.4c-3.9,2.1-6.8,7-8.7,11.3c-1.3,3.2-4.9,7.4-0.4,11.2c-1.2,0.9-2.3,2.3-3.5,2.5
		c-2.9,0.4-3.6,1.8-3.5,4.4c0.1,1.8,0.1,5.1-0.2,5.1c-2.9,0.3-6.7,1.3-8.6-0.2c-3.5-2.6-5.9-2-9.4-0.3c-5.4,2.6-10.5,1.2-15.3-2.5
		c-1.8-1.4-4.7-2-7-1.8c-1,0.1-2,3.2-2.4,5c-0.7,2.7-5.5,7-8.6,7.1c-0.5-1.7-1.2-3.4-1.6-5.1c-0.8-3.3-2.4-5.5-6.3-5.9
		c-2.9-0.3-5.6-1.7-8.5-2.5c-4.4-1.1-8.8-1.9-12.7,3.4c-2-4.1-3.2-7.7-5.4-10.6c-0.9-1.2-3.9-1.1-6-1c-1.7,0.1-3.3,1.1-4.5,1.5
		c-2.4-1.6-4.6-3.1-7.4-5c-0.1-2.7-1.9-4.4-5.9-4.7c-4.6-0.3-7.5-3-10.2-6.9c-3-4.3-7-8.1-13.5-6.8c-1.4,0.3-3.1-1.8-4.7-2.3
		c-2.2-0.7-4.6-0.9-7.7-1.4c-0.2-1.1-0.7-3.6-1.3-6.1c-0.4-1.6-0.7-3.6-1.9-4.5c-6.4-4.7-3.3-10.1-1.5-15.5c0.3-0.9,0.3-1.9,0.1-2.9
		c-0.8-7.1-1.7-14.1-2.4-21.2c-0.1-0.8,0.8-1.7,1.3-2.5c1.6-2.6,3.2-5.3,5-7.8c0.6-0.9,1.9-1.5,3-2c1.8-0.8,3.7-1.4,6.3-2.3
		c1.2,0.6,3.2,2.1,5.3,2.4c2.1,0.3,4.5-0.5,6.7-0.9c0.4-0.1,0.6-1,1-1c8.2-0.4,4.5-6,4.7-10.1c0.2-5.1-0.3-10-3.1-14.4
		c-0.2-0.3,0.9-1.3,0.9-1.9c-0.2-2.1-0.7-6-1.1-6C1030.6,322.5,1030.8,318.8,1029.3,316.4z"></path>
            <text transform="matrix(1 0 0 1 1072.593 378.1364)"></text>
        </g>
        <g id="UA-71">
            <g>
                <path id="XMLID_195_" d="M1160.9,372.8c3.7-5.2,0.6-7.4-3.1-8.5c2.7-3.8,5.5-7.6,8.9-12.4c1.7,0,5,0,8.1,0c4.1-9.7,3.8-9,15-10.1
			c4.1-0.4,8.3,0.5,12.5,0.9c0.5,0,1,0,1.5,0.2c2.1,0.9,4.1,1.9,6.2,2.8c0.9-2.7,1.9-5.4,2.8-8.2c0.2-0.6,0.2-1.3,0.1-0.7
			c4.5-0.7,8.7-1.4,12.8-2c1.2-0.2,3.1-0.6,3.4-0.1c2.5,3.7,5.1,1.8,7.8,0.6c1.1-0.5,2.1-1,3.3-1.2c4.6-0.8,6.4-2.1,9.2-6.4
			c1.6-2.4,3.8-4.5,5.7-6.6c2.9-3.1,5.9-6,8.7-9.1c0.6-0.6,0.7-1.8,0.8-2.8c0.8-8.4,1.4-16.8,2.2-25.3c0.1-0.8,0.3-2,0.8-2.2
			c3.7-1.9,7.5-3.6,12.1-5.7c0.2,2.8,0.2,4.6,0.6,6.3c0.7,3.3,0.9,7,2.7,9.6c3.1,4.4,7.1,8.1,10.9,12c0.6,0.6,1.8,0.7,2.7,1
			c1.3,0.4,3.3,0.3,3.7,1.1c4.1,7.4,13.4,7.4,18.1,12.7c3.1,3.5,7,5.3,10.1,8.3c4,3.9,7.9,7.6,13.8,8.1c1,0.1,2.1,1,3,1.6
			c5,3.4,9.9,7.1,15.1,10.1c7.3,4.2,10.3,11.7,14.7,18.2c0.4,0.6,0.1,2.4-0.5,2.8c-0.9,0.6-2.4,0.9-3.4,0.5
			c-2.7-1.1-4.6-1.8-6.7,1.4c-2.2,3.3-10.2-0.1-10.7-5c-0.5-5.3-2.8-5.3-6.4-3.6c-3.8-5.4-3.9-5.5-9.3-1.6c-5,3.7-9,8.2-10.7,13.2
			c-5.2,1.6-9.9,3.1-15.2,4.7c-2.7-4-7.4-5.7-12.7-5.4c-1.8,0.1-4,2.9-5.3,2.4c-9.2-3.4-7.5,2.8-8.3,8.1c-1.2,7.9-6.2,10.8-14.3,9.6
			c-4-0.6-8.1-1.6-11.9,1.4c-0.8,0.6-2.5,0.3-3.8,0.1c-7.8-1.2-15.6-2.7-23.4-3.4c-2.2-0.2-4.6,2.6-7.1,3.3
			c-3.5,1.1-3.6,3.2-3.1,6.1c0.1,0.8-0.7,2.2-1.5,2.8c-3.1,2.5-4.1,5.2-1.2,9.2c-1.2-0.2-2.5-0.4-3.6-0.8c-3.5-1-6.4-2.7-8.7,2.7
			c-1.1,2.5-6.5,3.2-10.1,4.6c-1.9,0.7-3.9,1.1-5.8,1.7c-1.2,0.4-3,1.4-3.6,0.9c-1.1-0.8-1.7-2.4-2.2-3.8
			c-1.6-5.1-2.9-10.3-4.6-15.3c-0.3-0.8-2.2-0.8-2.9-1.6c-0.9-1.1-1.8-2.7-1.7-4c0.2-3.6-1.1-5.9-4.7-6c-3.2,0-3.2-2-4.3-4.2
			C1165.4,381.7,1167.8,375,1160.9,372.8z"></path>
                <path id="XMLID_184_" d="M1370.2,307.9c-8.7-0.1-5.8,6.5-8.3,9.5c-4,4.9,4.2,6.5,3,10.4c-2.8-0.8-5.8-1-8-2.4
			c-4.2-2.6-8.1-5.6-11.9-8.8c-3.1-2.7-5.9-4-10.3-3.1c-3.3,0.7-7.1-0.3-8.8-4.4c-2.5-5.8-6.5-6.3-10.7-1.6c-1.7,2-3.7,2.5-5-0.5
			c-2-4.4-5.7-5.6-10-7.4c-6.6-2.8-12.3-8.3-15.7-15.3c4.3-3.7,8.8-3.5,13.3-2.1c2.9,0.9,4.9,0.2,6-2.6c1.7-4,2.5-8.9,5.4-11.9
			c3.6-3.8,4.9-7.3,3.8-12.2c-0.2-0.8,1.7-2.7,2.9-3.1c5.5-1.8,7.1-5.4,4.8-11.7c2.1,1,3.5,1.3,4.2,2.1c3.7,5,9.9,8.1,11.1,15
			c0.2,1,1.1,2.6,1.8,2.7c4.8,0.5,5.8,5,8.1,7.9c0.9,1.1-0.4,3.9-0.7,6c-0.3,1.7-1.3,3.5-0.9,5.1c1.3,5.8,6.5,7.5,10.9,10.2
			c1.1,0.7,2.7,2,2.6,2.8c-0.4,4.1,2.3,4.9,5.2,6.6C1365.6,300.7,1367.2,304.1,1370.2,307.9z"></path>
            </g>
            <text transform="matrix(1 0 0 1 1247.593 356.1364)"></text>
        </g>
        <g id="UA-74">
            <path id="XMLID_214_" d="M1393.7,118.1c-6.6-0.1-8.7,3.3-5.5,9.1c3.7,6.9,3,8.7-2.7,13.8c-1.6,1.5-1.1,5.2-2.1,7.6
		c-1.4,3.5-0.1,4.9,3.1,6.3c3.7,1.7,7.7,3.6,10.4,6.5c1.8,1.9,3,6.3,2,8.5c-2.7,5.8-4.6,10.8-2.7,17.7c1.2,4.4-2.1,10-3.2,15.1
		c-1.8,8.4-8.7,13-14.3,18.2c-2.5,2.4-7.5,2.1-11.4,3c-1.8,0.4-3.6,0.8-5.3,0.7c-1.8-0.1-4.1-0.3-5.2-1.4
		c-3.1-3.2-10.7-4.4-14.9-2.4c-3.9,1.9-6.6,7.1-10.3,5.5c-4-4.5-6.6-7.5-8.2-9.4c1-3.3,2.3-5.5,2.3-7.8c0.1-3-2.8-2.7-4.9-3.5
		c-2.8-1.2-5-3.9-7.5-6c-3.2-2.8-7.4-2.6-9.1,1c-2.7,5.8-8.8,6.2-13.3,7.9c-4.9,1.8-11,0.8-16.5,0.2c-2.1-0.3-3.8-3.1-6-4.9
		c0.8-4.2,1.1-8.4-2.4-12.6c-7.2-8.4-6.9-8.7-17.7-7.2c-0.8,0.1-1.7,0.8-2.4,0.6c-3.4-0.9-9.4,1.4-7.4-6.7c0.5-1.9-4.4-5.1-7.7-8.6
		c0.5-3.5,1.1-8.8-4.6-10.7c-0.6-7.6-1.3-14.8-1.7-22c-0.1-1.7,0.4-4.2,1.5-4.9c4.2-2.7,3.6-6.8,2.7-10.3
		c-1.6-6.6-4.9-12.7-6.2-19.3c-0.6-3.3,1.5-7.2,2.9-10.6c1.5-3.5,4.2-6.5,5.2-10c1.3-4.7,3.6-8.1,7.6-10.9c2.8-2,5-5,7.5-7.5
		c0.6-0.6,1-1.6,1.7-1.8c6-1.3,5.1-5,3.1-9.2c5.6,0,10.9-1.3,15.7,3.1c1.8,1.7,5.7,1.8,6.9-2c1.6-4.7,5.8-5,9.3-5
		c8.5-0.1,17.1,0.5,25.6,1.1c1.4,0.1,3.4,2.1,3.7,3.5c0.7,4.4,3.1,4.3,6.4,3.5c2.4-0.6,5.1-0.9,7.6-0.5c8,1.3,19.6-7.4,20.2-15.3
		c0.1-1.1,0.2-2.3,0.5-3.4c0.9-3.2,2-6.4,3.3-10.6c4.7,1.6,10.7,3.8,16.8,5.8c2.3,0.8,4.7,1.3,7.1,1.7c3,0.5,5.9,0.8,8.9,1
		c1.3,0.1,2.9,0.2,3.9-0.4c5.8-3.7,11.5-7.5,17.3-11.3c0.7-0.4,1.7-0.6,2.5-0.5c2.4,0.4,4.8,1.1,7.8,1.8c-1.8,3.6-3.6,6.9-5,10.3
		c-1.7,4,0.2,8.7,4,11.3c1.2,0.8,2.2,1.9,3,2.6c-1.2,1.5-3.1,2.7-3.1,3.8c0.1,7.9-4.2,11.5-11.4,13.4c-9,2.4-12.8,14.8-7.8,22.6
		c3.4,5.4,5.3,11.5,2,18.3C1394.1,110.1,1394.4,114.3,1393.7,118.1L1393.7,118.1z"></path>
            <text transform="matrix(1 0 0 1 1284.4996 124.6782)"></text>
        </g>
        <g id="UA-59">
            <path id="XMLID_207_" d="M1518.9,246c-4.9-1.5-10.9-0.3-17.2,4.3c-1.7-0.3-4.3-0.8-7-1.3c0.4-5.8-4.1-13.8-9.3-15.7
		c1.5-4.6-0.1-8.4-3.9-11.2c-3.2-2.3-3.9-5.4-3.7-9.2c0.2-5.1-2.1-7.1-7-5.7c-2.8,0.8-5.7,2-7.9,3.8c-2.8,2.1-4.6,1.6-6.9-0.4
		c-4.7-4.1-8.8-3.5-13.3,1c-1.2,1.2-3.5,2.2-5.1,2c-5.7-0.6-11.4-1.5-17-2.8c-3.3-0.8-6.3-2.8-9.6-3.6c-2.7-0.6-5.6-0.4-8.3-0.2
		c-1.7,0.1-3.4,0.8-6.5,1.5c2.5-7,4.6-12.5,6.3-18.1c0.5-1.6,0.3-4.4-0.7-5.4c-3.5-3.4-0.9-6.5-0.1-9.6c0.6-2.4,1.8-4.7,2.3-7.1
		c0.8-3.4,1.4-6.9,1.8-10.3c0.1-1.3-0.2-3.2-1-3.9c-0.9-0.8-2.8-1-4.1-0.7c-1.2,0.2-2.1,1.5-2.7,1.9c-2.7-2-5.1-3.9-8.6-6.5
		c1.5-2.8,3.5-6.4,5.4-10c2-3.8,3.7-7.6-0.4-11.7c5.7-1.9,6.2-6,5.8-10.5c-0.1-0.9,0.1-2.2,0.7-2.8c5.2-5.2,3-11,1.8-16.8
		c-0.3-1.4-0.1-3.1-0.6-4.4c-0.8-2.3-1.8-4.6-3.2-6.6c-2.1-2.8-3.1-4.8-0.9-8.6c3.5-5.9,8.8-8.3,14.6-9.8c4.6-1.2,6.2-3.1,4.6-7.6
		c-0.3-1,0.2-2.2,0.3-3.5c1.7-0.2,3.4,0,4.6-0.6c1.3-0.7,2.7-2.3,2.9-3.6c0.2-1.5-0.4-3.7-1.5-4.8c-3.1-2.8-6.5-5.2-9.9-7.8
		c1.6-4.1,3.2-8.1,5-12.1c0.5-1,1.8-1.6,2.7-2.4c0.7,0.8,1.5,1.5,1.9,2.4c2,4.1,4.4,2.7,7.2,0.8c3.3-2.1,6.9-3.7,10.5-5.3
		c0.9-0.4,2.6-0.4,3.2,0.2c2.7,2.4,5.3,5.1,7.8,7.7c2.3,2.4,4.7,4.8,6.6,7.5c1.3,1.9,2.2,4.4,2.7,6.7c0.9,4.2,1.5,8.6,2.2,12.9
		c0.4,2.1,0.8,4.2,2,5.4c2.9,2.6,5.7,5.4,8.7,7.9c1.9,1.5,4.3,2.5,6.3,4c1.3,0.9,2.8,2,3.5,3.3c0.9,1.8,1.9,4.2,1.4,5.9
		c-0.3,1-3.4,1.3-5.3,1.7c-4.8,1.1-9.7,1.9-14.5,3.2c-3.1,0.8-3.6,5.9-0.9,8.1c7.6,6.2,8.8,11.4,6,20.6c-0.5,1.7,1.4,5,3.2,6.3
		c3.3,2.5,2.7,4.4,0.6,7c-1.2,1.5-2.1,3.3-3.1,4.9c2.9,1.2,7.3,4.4,8.6,3.4c5-3.8,9.4-1.5,14.1-0.6c1.9,0.4,4,0.1,5.8,0.1
		c3.6,7.6,10,9.3,19.6,5.3c6.8-2.9,6.8-2.9,13-1.7c0.9,3.5,1.8,6.9,2.6,10.5c1.1,5,3.5,6.6,8.6,5.6c1.7-0.4,3.5-0.5,6.7-1
		c-5.2,2.4-6.9,8.8-3.4,11.1c4.6,3.1,2.5,8.1,5.1,11.5c0.8,1.1,0.9,2.8,1.9,3.8c4,4.3,4.1,7.3-0.1,11.7c-0.3,0.4-0.7,0.7-1,1.1
		c-1.9,3,3.1,19.8,6.5,20.5c4.6,0.9,5.9,3.5,5.9,7.7c0,1.2,0.8,2.4,1.5,4.3c-5.1,0-10-1-14.2,0.3s-9.5,2.6-10.9,8.6
		C1532.2,234.7,1527.9,243.4,1518.9,246z"></path>
            <text transform="matrix(1 0 0 1 1436.093 173.8898)"></text>
        </g>
        <g id="UA-53">
            <path id="XMLID_211_" d="M1485.3,358.4c-1.7,2.4-3.3,4.2-4.5,6.3c-2.3,4.2-4.6,8.3-6.4,12.7c-0.5,1.3,1,3.2,1.4,4.9
		c0.2,0.8,0,1.8-0.4,2.4c-0.2,0.3-1.4,0.3-2,0c-1.9-0.8-3.7-1.8-5.8-2.8c0.2-0.5,0.8-1.4,0.8-2.3c0-1.7-0.4-3.4-0.6-5.1
		c-1.7,0.4-4,0.2-4.9,1.2c-3.3,3.7-6.4,1.8-9.3,0c-3.8-2.4-7.1-5.3-12.1-5c-1.4,0.1-2.8-2-4.3-2.8c-6.4-3.3-12.8-6.6-19.2-9.8
		c-1.2-0.6-2.7-1.3-3.8-1c-8.9,2-10.9-5-14.6-10.4c-3.4-5-7.9-9.3-11.9-13.8c-0.5-0.6-1.5-1.2-1.5-1.8c-0.8-7.8-7.1-10.8-12.5-14.9
		c1.6-4.8,1.7-9.1-1.6-14.4c-2.3-3.6-3.8-6.2-7.9-7.2c-0.8-0.2-2.1-1.4-2-1.9c1.3-7.8-6.2-7.3-9.7-10.5c-0.8-0.7-1.9-1.1-2.9-1.7
		c3.8-11.6-0.2-21.9-9.7-24.1c0.4-1,0.7-2.1,1.1-3c2.1-4.5,1-6.5-4-7.3c-6.8-1-9-7.3-4.7-14.9c3.8,1.9,6.2,0.1,8.6-3
		c3.3-4.3,7.8-1.8,11.1-0.5c7.9,3,15.4,3.1,23.4,0.7c8.1-2.4,12.6-8.8,18.4-14c1-0.9,3.2-0.7,4.9-0.9c2.6-0.3,5.3-0.5,9.3-0.8
		c5,0.9,11.5,2.1,18.1,3.4c2.1,0.4,4.6,0.3,6.2,1.4c5,3.5,10.1,0.9,15,0.3c1.2-0.1,2.2-2.3,3.4-3.7c3.2,1.5,6.9,4.6,10.6,4.5
		c3.5-0.1,6.8-3.6,11.2-6.1c-0.3,7.2,2.3,12.5,7.8,16.1c-1.1,7.1,3,11.5,7.6,15.7c0.4,0.3-0.4,1.7-0.3,2.5c0.1,2.8,0.4,5.7,0.6,8.5
		c2-0.2,4-0.4,6.1-0.6c0.8-0.1,1.7-0.5,2.4-0.2c5.5,1.9,10.4-0.2,15.1-2.6c2.5-1.3,5.1-2.4,6.2,0.3c0.8,1.9,0.2,5.5-1.2,7
		c-2.9,3.1-3.1,5.9-2.3,9.9c0.7,3.5,2.1,5.9,5.1,7.3c5.7,2.7,11.5,5.3,17.1,7.8c1.2,3.4,2.1,7.4,4.1,10.7c1.5,2.4,4.4,5.5,6.8,5.6
		c5.4,0.2,6.4,3.7,8,7.8c-3.4,0.8-7.2,1.7-3.4,6.3c-7.6,2-8.2,4.2-3.8,12.6c-2.8,4.4-5.5,8.9-11.9,7.9c-0.8-0.1-1.8,0-2.4-0.4
		c-3.6-2.5-6.6-2.2-9.7,1c-3,3.2-4.8,6.3-1.8,11.3C1508.5,346,1497.7,355.3,1485.3,358.4z"></path>
            <text transform="matrix(1 0 0 1 1427.593 297.996)"></text>
        </g>
        <g id="UA-63">
            <path id="XMLID_213_" d="M1554,320.9c7.5-0.5,10.7-7.7,6.8-15.2c-1.1-2-1.8-4.5-1.8-6.7c0-4.6-3.1-4.1-5.9-3.9
		c-6.4,0.5-10.7-3.7-10.3-10.1c0.4-5.5-1.8-6.6-7-7.6c-5.1-1-10.3-3.5-14.6-6.5c-2.2-1.6-3.5-5.4-0.2-8.7c1.7-1.7,2.3-4.8,2.6-7.4
		c0.4-2.8,0.5-4.3,4.1-5.2c3.5-0.8,6.4-4.2,9.9-6.7c8.7,4.4,11.5-7.9,19.9-7.4c1.9-0.3,4.5-0.7,7.1-1.1c0.3-0.1,0.7-0.3,0.9-0.3
		c9.1,2,13.4-4.9,18.8-9.9c5.4-4.9,19.5-2.4,23.2,3.8c1.7,2.8,3.5,6,6,7.7c2,1.4,5.6,1.9,8,1.1c5-1.6,7.3-0.9,9.6,3.7
		c0.9,1.8,3,3.7,4.9,4.2c2.8,0.7,5.4,0.3,7.9-2.5c6.1-6.9,13.4-11.6,23.6-10.5c6.8,0.7,13.2-2.3,18.7-6.7c1.9-1.5,4.2-2.5,7-4.1
		c1.6,7.3,4.3,12.5,11.3,13.4c0.1,0.9,0.5,1.6,0.3,2.1c-2.3,5.8,1.8,9.2,4.3,13.6c3.1,5.6,6.8,9.4,12.9,11.7
		c5.9,2.2,9.1,7.2,10,13.6c0.2,1.2,1.1,2.4,0.7,3.3c-0.6,2.8-1.3,5.5-2.1,9c-0.6,0.6-2.3,1.9-3.1,3.5c-0.5,1.2-0.1,4.1,0.5,4.3
		c6.1,2.1,1.3,5.2,0.9,7.8c-0.3,1.9-0.6,3.9-1.2,5.7c-1.2,3.7-2.6,7.4-4.1,11c-0.5,1.2-1.8,2.3-1.7,3.3c0.5,5.3,1.3,10.5,2.1,16.3
		c0.3-0.4,0.1-0.2-0.1,0.1c-3.3,5.5-7.9,4.2-13,3c-3.5-0.8-8.2-0.7-11.1,1.1c-4.6,2.8-3.7,6.2,1.9,8.6c-1.8,1.3-3.2,2.9-4.9,3.3
		c-6.3,1.6-11.3,6.3-12.8,11.2c-1.9,6.2-7,9.5-9,13.5c-5,2.3-9.1,4.2-13.3,6.2c0-0.2,0.1-0.3,0.1-0.5c-3.2,0.7-6.5,1.4-9.7,1.9
		c-1.2,0.2-2.5,0.3-3.7,0c-6.7-1.3-8.4,0.4-6.8,6.9c0.4,1.6,1.4,3.5,1,4.8c-0.9,2.6-2.7,4.8-4.2,7.3c-9.4-6.9-10-8.1-19.2,3.4
		c-0.6-0.8-1.9-1.8-1.7-2.2c1.4-3.7-1.2-5.5-3.3-7.6c-2.5-2.5-5.4-4-4.9-9c0.2-2.7-5.3-5.8-8.1-8.9c-0.8-0.9-1.4-2.2-1.6-3.3
		c-1.2-7.8-4-15.4-13.7-9.5c-5.9,3.6-11-0.7-16.5-1.1c-1.1-0.1-2.3-1.1-3.2-0.9c-5.5,1.1-9.2-2-12.7-5.2c-3.5-3.1-6.5-6.8-10.1-9.7
		c-2.2-1.7-5.2-2.8-7.9-3.2c-7.6-1.1-10.3-5.8-6.2-11.5c14.3,5.7,26.9-4.6,24.5-17.3L1554,320.9z"></path>
            <text transform="matrix(1 0 0 1 1612.5 310.88)"></text>
        </g>
        <g id="UA-09">
            <path id="XMLID_209_" d="M1791,466.6c2.4-7.4,1.9-8.9-4.6-11.1c-5.6-1.9-10.2-4.1-10.8-11c-0.3-3.6-2.4-5.1-6.3-3.7
		c-1.4,0.5-3.4-0.2-3.8-0.2c1-3.1,3.2-6.2,2.5-8.4c-2-6.6-6.1-9.4-10.5-8.6c-1.4-5-3.1-10-4-15.1c-0.4-2.4,0.1-5.5,1.3-7.7
		c2.5-4.7,1.4-15.1-2.6-19c-0.5-0.5-1.2-1-1.2-1.5c0-7.4-5.2-7.2-10.4-7.3c-0.5,0-1-0.2-1-0.3c0-4.6-0.3-9.1,0.1-13.6
		c0.7-9.4,0.8-9.3-8.5-7.6c-0.5,0.1-1.2-0.5-2-0.9c3-3,1.8-5.1-1.4-6.5c4.1-7.1,4-8.3-0.4-10.7c0.7-4.4,0.1-8.9,2.2-13.4
		c2.6-5.7,3.8-12.1,5.5-18.2c0.4-1.4,0.7-3,0.5-4.4c-0.6-5.6,2.6-10,4.4-14.8c0.7-1.8-0.6-4.5-1.2-7.5c2.1-0.8,6.2-1.3,8.1-3.5
		c1.9-2.3,1.7-6.4,2.6-10.6c0.9-0.3,2.7-0.8,4.4-1.3c4,9.4,9.6,12.9,19.3,11c5.1-1,5.9,3.7,9,5.3c1.1,0.6,2,2.3,3,2.4
		c5.3,0.2,9.2,2.1,11.3,7.3c0.3,0.6,2.1,1.1,3.1,1c5.2-0.9,11.3-0.2,14-8.1c1.4,3.4,2.5,5.6,3.2,7.8c2,6.7,7.1,9.4,13.8,7
		c5.1-1.7,9.8,0.5,11.4,5.6c1.4,4.8,3,8.9,9,9.5c3.3,0.3,4.4,5.9,8.7,4.4c4.7-1.6,9.2-3.5,13.8-5.3c-0.1-0.5-0.3-1-0.4-1.5
		c1.8,0.7,3.6,1.5,5.4,2.2c-7.6,6.9-7.7,12.5-0.3,21.3c3.5,4.2,3.5,8.8-0.3,12.9c-2.8,3-5.9,5.6-8.5,8.7c-2.1,2.5-3.8,5.5-5.9,8.8
		c-3.7,0.6-8.5,1.1-13.2,2.2c-2.6,0.6-3.3,8.9-1.1,11.2c0.5,0.5,1.4,0.6,1.6,1.1c1.9,3.7,4,6.7,9,7c3.8,0.2,7.5,1.9,11.5,3
		c-1.1,2.6-3,3.2-5.7,1.8c-7.8-3.9-13.5-1.2-15.8,7.3c-1,3.6-2.3,7.2-3.5,10.8c-1.8,5.3-0.2,7.9,5.2,8.5c7.3,0.7,7.1,0.7,6.7,7.7
		c-0.1,1.7,1.2,3.7,2.3,5.2c3.2,4.7,3,6.6-1,10.2c-0.9,0.8-1.2,4.3-0.9,4.4c3.5,1.4,5.9,6.7,11.1,3.5c-2,1.7-4.4,3-5.9,5
		s-2.3,4.7-3.3,7.1c-0.7,1.6-1,3.4-1.7,5c-0.8,1.7-1.9,3.3-2.8,5c-0.7,1.5-2.2,4-1.7,4.5c4,4.1-0.3,8.7,0.9,13.1
		c0.6,2-1.8,5.1-5.8,3.6c-2.5-1-5.5-0.8-8.3-1.2c-4.4-0.6-8.7-1.5-13.1-1.6c-4.6-0.1-9.2,0.4-13.8,1c-3.7,0.5-6.3-1.2-6-4.6
		c0.9-9.9-2.5-13.6-12.4-13.8C1794.4,467,1793,466.8,1791,466.6z"></path>
            <text transform="matrix(1 0 0 1 1789.093 373.6379)"></text>
        </g>
        <g id="UA-14">
            <path id="XMLID_208_" d="M1688.4,580.1c-5.2-0.3-9.2-0.5-13.5-0.8c0-1.5,0.4-4.3-0.1-6.8c-0.5-2.2-2.1-5.7-3.4-5.8
		c-4.7-0.3-4-4.7-6.1-6.5c-4.4-3.9-2-8.3-2.4-12.9c1.9-0.2,3.4-0.1,4.7-0.5c1.4-0.4,3.7-1,3.8-1.7c0.4-3.9,2.3-5,5.9-4.3
		c0.6,0.1,2-0.9,2.2-1.6c1-4.4,1.7-8.9,2.6-13.8c-6.9-1-12.3-3.4-15.7-9.2c-0.7-1.2-2.5-2.6-3.6-2.5c-5.5,0.8-8.2-4.2-11.8-6.2
		c-1.5-2-3.2-3.8-4.5-5.9c-1.1-1.6-2.2-3.5-2.5-5.4c-0.6-3.5-1.5-6.2-5.9-5.4c-0.3-3-0.6-5.4-0.9-7.9c5.3-2.6,5.5-4.9,2-9.9
		c-1.3-1.9-1.3-4.7-1.9-7.1c0.4-0.5,0.9-1,1.3-1.5c2,0.8,3.9,1.8,5.9,2.5c3.2,1.1,6.5,2.8,9.8,2.7c4.2-0.1,6.4-4.4,5.1-9.1
		c-0.7-2.6-1.3-4.8,1.4-6.5c0.5-0.4,0.8-1.5,0.8-2.2c-0.2-5.8,0.9-11.9-5.4-15.8c-1.2-0.8-2.2-3.6-1.8-5.1c1.1-4.4,2.7-8.6,4.6-12.7
		c1.9-4,0.2-8.4-4.1-9.2c-5.2-0.9-8.1-4.4-8.2-9.8c0-1.8,0-3.6,0-5c3.2-0.5,6.6-1.1,10-1.7c0-0.5,0-1.1,0-1.6c2.3,1.3,4.5,2.7,6.8,4
		c2.6,1.5,4.4,1.6,5.4-2.2c0.4-1.5,2.9-3.1,4.7-3.6c2.5-0.7,4.3-0.9,5.5-3.9c1-2.5,4.3-4.1,6.4-6.3c1.3-1.4,3.2-3.3,3-4.7
		c-0.7-5.2,2-8.4,5.8-11c3.4-2.3,7.2-4.1,10.8-6.1c2.5-1.4,4.7-3.2,3.5-6.2c-0.7-1.7-3-2.7-4.6-4.1c5.7,0.8,11.7,1.7,17.9,2.6
		c2.8,6.1,7.9,8.5,13.1,6.6c-0.2,3.1-0.4,6.4-0.7,10c-0.7,2.3-2.6,5.3-1.9,7.6c0.5,1.6,4.4,2.5,7,3.2c3.6,1.1,6,1.7,8.2,6.4
		c3.3,7,1.3,12.5,0.9,19c-0.3,5.3,0.2,11,2.3,16.8c2,5.7,3.2,9.9,9.6,11.2c1.2,0.2,1.9,2.5,1.6,3.5c-0.8,2.1-2.2,4.2-2.4,6.3
		c-0.2,3.5,1.7,5.6,5.6,4.9c4.7-0.9,7.2,1.5,7.3,5.7c0.1,5.1,3.5,6.1,7.2,7.4c3.5,1.2,7.9,1.3,6.4,7.5c-0.8,3.3,3.8,6.5,7.4,6.3
		c0.8,0,1.6-0.3,2.4-0.3c1.8,0.1,3.6,0.4,5.2,0.7c0.7,2.7,1.6,5.2,1.9,7.7c0.1,0.9-1,2-1.8,2.8c-0.3,0.3-1.3,0.1-1.9,0.1
		c-11-0.6-9.9-0.4-14.3,12.2c-0.9,2.6-2.5,3.7-4.5,5.5c-5.4,4.9-11.4,5.7-18.1,7.1c-9.2,1.9-11.7,6.8-11.4,16.9
		c0.1,4.6-0.7,8.6-3.6,12.4c-3.8,5.2-1.9,8.6,5.4,9.1c-5.3,3.8-8.7,7.8-6.2,14.2c0.4,1-1.7,2.9-2.2,3.7c-8.7-1.8-16.6-2.8-24.6-1.1
		c-2.6,0.6-5.6,1.7-7.9,0.9c-8.7-3.1-13.7,1.4-17.9,7.9C1691.9,574.9,1689.8,578,1688.4,580.1z"></path>
            <text transform="matrix(1 0 0 1 1697.093 475.8901)"></text>
        </g>
        <g id="UA-23">
            <g>
                <path id="XMLID_206_" d="M1631.4,489.9c2.7,2.5,4.7,4.3,6.6,6.1c0.3-0.3,0.5-0.5,0.8-0.8c2.4,6.2,4.9,12.3,7.3,18.5
			c0.3-0.3,0.6-0.7,0.9-1c2.5,1.7,4.9,3.6,7.6,5.2c1.1,0.7,2.6,0.8,3.9,1c1.7,0.3,3.8-0.1,4.9,0.9c2.8,2.5,5,5.7,7.9,8.2
			c1.3,1.1,3.5,1.2,5.6,1.9c-0.5,2-0.2,4.7-4.4,5c-1.4,0.1-3,3.1-3.7,5.1c-1,2.9-2.4,3.4-5.3,2.5c-1.7-0.5-3.7-0.2-5.6-0.2
			c0.1,2,0.3,4,0.4,6c0.1,1,0.2,2,0.2,2.3c-2,1.6-3.6,2.9-5.3,4.2c1.7,1.7,3.4,3.3,5,5c1.4,1.5,3.6,2.9,4.1,4.7
			c1.2,4.1,3.2,6.8,8.9,7.6c-1.9,2.3-3.4,3.8-4.3,5.5c-1.5,2.7-2.7,5.7-3.4,8.8c-3.7,4.6-11.3,5.8-11.2,14.1
			c-11-8-25.3-4.3-37.1,8.3c-5.6-0.6-10.4-1.9-15-1.6c-11.1,0.8-20.9,4.2-27.7,14c-2.2,3.2-5.8,5.6-9.5,9c-1.5-5.3-3.4-5.9-6.1-1
			c-0.4-0.3-0.8-0.6-1.2-0.9c-1.4-7.1-2.8-14.2-4.2-21.3c-5.7-0.1-7.5,2-6.7,7.3c0.8,5.5,1.6,10.9,1.6,17.2
			c-1.5-1.7-2.9-3.4-4.4-5.1c-0.8-0.8-1.7-1.5-2.5-2.2c-0.8,1-1.9,2-2.3,3.2c-0.4,1-0.4,2.7,0.2,3.4c4.1,4.2,1.7,7.3-1.3,10.5
			c-0.9,1-1.4,2.4-2.5,4.6c-0.6-5.4-1.1-9.8-1.6-14.1c-0.3-2.5-1.2-3.7-4-4.7c-3.1-1.1-7.5-1.4-8.5-6.2c-0.1-0.6-2.7-1.1-4.1-1
			c-3.9,0.1-5.1-2.2-4.4-5.4c0.9-4.4,0.4-7.7-4.9-8.2c3.1-4.6,6-8.8,8.6-13.1c0.6-1,0.6-2.9,0.1-3.9c-2-3.2-3.7-7.3-6.7-8.9
			c-5.9-3.3-8-8-10.5-14c-2.8-6.6-1.9-13.2-3.6-19.7c-0.1-0.3-0.4-0.8-0.2-0.9c1.4-2,3.1-4.8-0.1-5.5c-2.7-0.6-6.2,0.8-8.8,2.3
			c-2.9,1.7-4.4,1.8-5.3-1.7c-0.6-2.2-1.2-4.5-1.7-6.1c2.2-2.5,4-4.8,5.9-6.9c0.7-0.8,1.6-1.6,2.6-1.9c3.3-1.1,6.8-1.8,10-3.1
			c4.6-1.9,10.5-0.3,13.8,3.6c2.4,2.9,5,5.7,7.9,8.1c3.6,2.9,10.1,1.9,14.2-1.8c3.7-3.4,7.8-1.8,11.9-1.5c1.4,0.1,2.7,0.6,3.3,0.7
			c1.3-3.6,2.5-6.6,3.3-9.6c1.6-6.1-4.1-10-5.1-15.4c-0.6-3.1-2.5-5.9-3.8-8.8c-0.6-1.4-0.7-3.2-1.6-4.1c-4.7-4.5-4.5-10.5-3.1-15.6
			c1.9-6.8,0-11.9-5.1-17.3c6.4,0.3,11.5-2.1,17.2,1c3.8,2,8.6,2.1,13,2.8c1.1,0.2,2.7,0,3.3-0.7c3.9-4.7,8.2-4.6,12.2-0.8
			c4.5,4.3,8.7,3.3,12.5,0.7c3.9,5.9,7.5,11.4,10.6,16.1c-1,2.4-3,5.1-2.4,6c1.3,1.8,3.9,2.9,6.1,3.7c1.7,0.7,3.9,0.2,5.5,1
			c6,3,11.8-0.7,17.7-0.4C1629.5,490.5,1631.2,489.9,1631.4,489.9z"></path>
                <path id="XMLID_183_" d="M1524.8,516c-4-4-1.4-8.1-0.8-12.2c0.5-3.2,3.3-7.2-2.1-9.2c-0.4-0.1-0.7-1.3-0.5-1.8
			c2.1-5.4-1.4-7.5-6.5-9.6c2.3-1.4,4-2.3,5.4-3.4c1-0.8,2.4-2,2.5-3c0-1.4-0.8-3.6-1.8-4c-4-1.7-3.7-4.5-2.9-7.6
			c3.6-0.9,7.2-1.8,11.1-2.7c0.2,0.2,0.9,1.1,1.6,2c4.2,5.2,5.2,14.2,1.4,19.6c-2.5,3.6-2.8,6.5,0.1,9.7c4.1,4.5,1,9-0.7,13
			C1530.1,510.3,1527.1,513,1524.8,516z"></path>
            </g>
            <text transform="matrix(1 0 0 1 1563.593 556.6403)"></text>
        </g>
        <g id="UA-65">
            <g>
                <path id="XMLID_196_" d="M1473.3,533.1c1.2,3.5,2.3,7.1,3.5,10.6c0.5,1.4,1.4,4,1.9,4c2.7-0.2,5.5-0.9,8.1-1.8
			c0.8-0.3,1.3-1.8,2.7-4c0.6,5.1,0.8,9,1.5,12.7s2,7.3,3,11c0.3,1.3,0.8,2.5,0.9,3.8c0.3,5.3,2.6,9.2,7.4,11.6
			c2.6,1.3,5.3,2.4,5.9,6c0.2,1.2,2.2,2.1,2.9,2.8c-1.3,2.8-2.2,5.6-3.8,7.9c-1.1,1.7-3.2,2.8-4.7,4.3c-1,1-2.5,2.3-2.5,3.5
			c0.1,1.2,1.5,2.6,2.7,3.3c1.5,0.9,3.4,1.1,5,1.6c-1.9,9.2,0,12.4,7.5,12.7c0.4,2.5,0.5,4.7,4.8,4.6c6.5-0.1,10.2,6.1,9.1,12.7
			c-0.2,1,0,1.9,0,2.9c0,2.2,0.8,5.7-0.2,6.4c-2.1,1.4-5.1,4.3-8,0.5c-0.2-0.2-2.2,0.4-2.8,1.2c-2.4,3.1-4.6,6.3-6.9,9.5
			c-6.8-4-7.4-4-12.2-0.3c-4.4-5.1-4.4-5.1-7.6,1.3c-2.3-1.7-4.3-4-6.8-4.7c-2.2-0.6-3.9-6.3-7-1.2c-2.1-2.7-4-5.5-6.4-7.9
			c-1.8-1.8-4.1-1.5-4.1,1.4c-0.1,3.7-0.4,6.8-4.4,8.4c-0.5,0.2-0.5,1.9-0.7,2.9c-0.7,0.6-1.5,1.2-2.2,1.8c-0.4-1.3-0.6-2.6-1.1-3.8
			c-2-5.2-6-6.4-11.1-5.6c-0.6,0.1-1.5,0-1.8-0.4c-3-3.3-5.5-1.6-7.6,0.5c-1.9-0.4-4.8-1.2-5-0.9c-1,2.2-1.4,4.8-2.6,6.4
			c-2.3,2.6-5,5-6.7,8c-2.7,5-3.6,5.2-7.2,1c-1.8-2.1-4.4-3.9-7-5.1c-2.9-1.4-5-2.6-3.2-6.2c0.3-0.6-0.7-1.8-1.4-3.3
			c-2.8,3.8-5,6.9-7,9.6c-2.7-1.4-4.8-2.6-7.4-4c-0.5,2-0.9,3.3-1.3,5c-2.5,0.1-5.4,1-7.8,0.3c-8-2.5-15.1,0.7-22.4,2.8
			c-3.9,1.1-16.9-0.4-19-3.6c-1.1-1.7-0.7-4.5-1-7.2c-5.2,1.9-9.3,0.3-12.2-4.5c-0.5-0.7-1.5-1.2-2.4-1.6c-3.4-1.6-6.8-3.1-10.4-4.8
			c4.5-2.6,8-4.8,11.6-6.8c-1.3-6.4-3-7.6-9.2-8.5c-3.1-0.5-6.1-2.4-9.1-3.6c-4-1.7-6.3-1.4-10.5,1.7c-1.1-1.2-2.3-2.5-4-4.3
			c5.5-1.2,9.9-2.1,15.1,0.2c4.6,2.1,10.1,2.7,15.3,3.1c5.6,0.4,10.8,0.8,15.9,3.5c5.7,3.1,9.5,0.3,11-6c0.5-2.2,3.6-4,5.9-5.4
			c3.8-2.2,8.4-3.2,10.3-7.9c0.2-0.6,1.3-0.9,2-1.2c5.1-2.1,10.1-4.9,15.5-6c8.1-1.6,15.6-8.2,24.9-3.3c1.8,1,6-0.8,8.1-2.5
			c2.6-2.2,5-4.2,8.3-3.1c5.4,1.8,8.3-4,13-3.8c-0.2-1.7-0.4-3.4-0.6-5.4c1.7-0.4,4.5-1.2,7.3-1.9c0-0.6,0.1-1.2,0.1-1.7
			c-2.1-0.6-4.3-1.2-7.9-2.1c2.4-3.1,5-5.8,6.9-8.9c5.4-8.6,13.7-15.2,16.4-25.5c1.1-4.3,3.4-4.8,8.5-2.8c1.4,0.6,3,0.6,4.5,0.9
			c-0.4-1.3-1-2.5-1.1-3.8c-0.1-1.2,0.3-2.4,0.3-3.7c0-1-0.4-2-0.6-3C1472.5,533.2,1472.9,533.1,1473.3,533.1z"></path>
                <path id="XMLID_185_" d="M1332.7,616.2c-3.7-1.8-6.5-2.7-8.6-4.4c-2-1.6-3.3-4.1-5.9-7.6c4.4-0.6,7.6-0.3,10.1-1.5
			c3.4-1.6,6.4-4.2,9.5-6.4c-0.2-0.4-0.4-0.9-0.6-1.3c1.3,0.5,2.7,1.2,4,1.6c2.4,0.7,4.7,0.6,5.5-2.4c0.8-2.7,2.1-2.4,4.5-1.7
			c2,0.6,4.4-0.4,6.6-0.6c2.7-0.2,6.8-1.6,7.9-0.4c3.7,4.1,7.8,1.6,11.6,1.8c2.2,0.2,4.6-1.6,6.9-2.5c3.9-1.4,2.7-2.9-0.8-4.9
			c2.3-1.2,4.7-1.8,5.9-3.3c2.2-2.9,4-6.3,5.3-9.7c0.4-1-1.4-3.2-2.7-4.3c-2-1.7-4.4-2.9-6.7-4.3c0.4-7,6.9-7.5,11.3-9.4
			c3-1.3,3.3-2.7,3.1-5c-0.2-3.1-0.4-6.2-0.9-9.3c-0.3-2.4-0.9-4.7-1.5-7.3c2.3-1.5,2.4-11.6-0.6-17.5c6.3,2.2,12.3,3.7,15.8,9.1
			c5.4-2.9,10.1-5.4,14.8-7.9c1.6,7.4,5.6,9.9,13.4,7.9c1.6-0.4,3.2-0.8,4.8-1.3c5.3-1.6,4.9-1.5,5.9,3.8c0.5,2.4,2.7,4.5,3.7,5.9
			c-0.3,2.6-0.4,4.4-0.7,6.2c-0.2,1.2-0.1,2.7-0.7,3.6c-3.1,4.6-5.3,10.3-12.2,10.8c-0.4,0-1.2,2.2-0.9,2.9c2.2,4.4-0.3,8.6-5.4,9.1
			c-1.1,0.1-2.4,1.2-2.9,2.2c-0.7,1.6-0.4,4-3.4,3.2c-0.1,0-1.2,2.1-0.9,2.4c4.9,5.3,0.8,9.9-0.8,15.2c-2.2-1.1-4-2-5.8-2.9
			c-3.4,3.2-6.7,6.4-10,9.4c-1.9,1.7-4,2-6.6,0.8c-2-0.9-4.8-1.2-6.8-0.5c-7,2.6-13.8,5.8-20.6,8.7c-0.9,0.4-1.8,1-2.7,1.2
			c-9.7,1.2-17.3,7.3-25.8,11.4c-3,1.5-6,2.6-8.6-1.3C1338.5,613.5,1338.1,613.8,1332.7,616.2z"></path>
            </g>
            <text transform="matrix(1 0 0 1 1425.593 623.8901)"></text>
        </g>
        <g id="UA-43">
            <path id="XMLID_204_" d="M1506.6,702.6c-0.5,1.5-1,3-1.3,3.7c6.3,2.9,12.1,5.6,18.3,8.4c1.7,2.9,3.9,6.3,5.7,9.9
		c1.8,3.7,4.1,7.6-2,10.1c-0.8,0.3-1.4,3.6-0.7,4.6c2.9,4.5,4.9,9.6,12.2,9.8c3.9,0.1,7.6,4.2,11.6,5.9c2.2,1,5.6,1.9,7.2,0.9
		c7.5-4.7,16-5.7,24.1-8.4c5.1-1.7,9.5-3,14.8-2.1c1.2,0.2,3.5-2.6,4.5-4.5c3.3-6.1,7.8-7.1,14.1-4c2.8,1.4,6.7,0.5,10,1.1
		c3.7,0.6,7.3,1.4,10.9,2.6c0.9,0.3,1.3,2.2,2.5,4.6c-2.9-0.8-4.5-1.5-5.9-1.4c-1.7,0.1-4.3,0.5-4.8,1.5c-4.1,8.5-9.2,17-3.2,27.6
		c-2.8,0.8-5.2,1.5-7.6,2.1c-1.5,0.4-4,0.2-4.5,1.1c-1.9,3.1-4.3,1.6-6.1,0.8c-4.5-2.1-8.3-3.6-12.2,1.3c-1.3,1.6-4.9,1.2-7.7,1.8
		c-4-7.7-10.6-11.9-19-13.4c-5.9-1-14.1,4.5-15.1,10.3c-0.7,3.9-2.2,6.7-6.9,6.3c-0.8-0.1-2,0.1-2.3,0.6c-2.9,5.4-11,7.3-10.5,15.1
		c0,0.4-0.6,0.7-1.1,1.4c-3.5-5.3-7.9-5.6-12.8-2.4c-0.4,0.2-1,0.3-1.5,0.2c-9.3-2.1-15.5,5.3-23.5,7.3c-7,1.7-8.8,8.4-11.5,14
		c-1.5,3-1.5,6.6-6.4,7.4c-2.8,0.5-6.2,3.5-7.2,6.2c-2.3,6.1-8.4,6-12.5,9c-1,0.7-3,0.1-4.5,0.1c-2.4,0-4.9,0.4-7-0.2
		c-3.3-1-7.5-1.9-9.3-4.4c-3.5-4.7-8.8-5.7-13.2-8.3c-1.1-0.6-1.9-1.8-2.8-2.7c1.1-0.9,2.1-2.1,3.3-2.5c2.3-0.7,4.8-1,6.7-1.3
		c-0.6-6.3-1.3-12.5-1.7-18.6c-0.1-1.3,0.3-3.3,1.2-3.9c7.4-5,5.6-12,4.1-18.8c-0.9-4.1-2.2-8.2-3.5-12.2c-0.3-0.9-1.2-1.5-2-2.5
		c0.8-0.8,2.1-1.3,2.4-2.2c0.7-2.7,1.1-5.5,1.6-8.3c-3.1-0.3-6.4-1.5-9.2-0.8c-3.2,0.8-5.8,3.8-8.9,4.9c-6.1,2-9.3,0.6-13.3-4.4
		c-1.9-2.3-4.1-4.4-6.3-6.8c1.4-2.3,2-5.1,5.8-5.8c1.1-0.2,1.6-4.1,2.6-6.8c-2,0-3.3-0.4-3.8,0.1c-7.4,5.7-15.8,6.4-24.7,5.9
		c-2.1-0.1-4.8,0.6-6.3,2c-3.6,3.3-7,1.7-9.2-0.7c-2.1-2.3-2-6,1.2-8.2c3.4-2.4,7.9-3.8,10.5-6.8c3.2-3.7,10.4-1.8,11.3-8.8
		c0.3-1.9,3.2-4,5.3-4.9c7.2-3.3,14.6-6,21.8-9.2c3.4-1.6,6.4-4.1,9.7-6c2.4-1.4,5-2.6,7.5-3.6c1.9-0.8,4-1.3,5.8-3.1
		c1.7,0.6,4.3,2.1,5,1.5c3.3-2.8,6-6.2,8.8-9.6c0.2-0.2-2-3.2-3-3.2c-6.7,0-5.7-5.5-6.3-9.1c-0.5-2.8,0.8-6,1.4-9.6
		c4,4.1,12.9,3.2,10.6,13c10.7-2.4,7,6.9,9.8,11c1,1.6,1.9,3.3,2.8,5c2.2-1.4,4.3-2.8,6.5-4.3c0.8-0.5,1.4-1.6,2.2-1.6
		c4.2-0.1,6.8-1.7,5.5-7.8c4.3,1.9,7.3,3.2,9.5,4.1c-0.2,4.1-5.5,7.2,0.5,9.7c2.7,1.2,6,0.9,9.4,1.4c-1.5,1.9-3.1,3.6-4.2,5.6
		c-0.6,1-0.6,2.6-0.2,3.6c0.2,0.6,2.2,0.9,3,0.6c3-1.2,5.8-2.7,8-3.8c2.1,0.8,4.1,1.5,6,2.2C1505.9,701.9,1506.3,702.3,1506.6,702.6
		z"></path>
            <text transform="matrix(1 0 0 1 1459.1002 765.3901)"></text>
        </g>
        <g id="UA-35">
            <path id="XMLID_205_" d="M1422.8,444.4c-4,2.4-8.1,4.8-12.2,7.2c-0.5,0.3-1.4,0.3-1.9,0.1c-4.2-1.8-6-0.2-5.7,4.1
		c0.2,3.4-0.7,5.6-4.6,5.3c-0.3,0-0.8,0-0.9,0.3c-3.9,5.8-9.8,3-14.9,3.7c-0.8,0.1-2.2,0.2-2.3,0.5c-1.2,6.7-7,4.3-10.8,5.4
		c-5.6,1.6-4.1,6.5-5.3,10.2c-0.8,2.6-0.9,5.5-1.2,8c-6.4,2.4-12.2,1.7-18.2-0.3c-9.2-3.1-9.6-2.8-14.5,5.1
		c-1.4-1.1-2.9-2.3-4.3-3.5c-2.9-2.5-5.9-3.5-9.5-1.4c-0.8,0.5-2.5,0.7-3,0.2c-0.6-0.6-0.7-2.1-0.5-3.1c1.2-5.3-0.6-9.7-5.4-12.2
		c-2.6-1.3-4-2.5-1.7-5.6c3-4.2,0.9-8.8-4.1-9.5c-7.6-1-15.1-2.1-22.7-2.8c-2.5-0.2-5.2,0.7-7.9,1.1c-1.6-3.1-3-5.9-4.5-8.7
		c-0.3-0.5-0.9-1.2-1.4-1.3c-5.7-0.2-11.5-3.7-17.2,1.7c-2,1.9-6.7,1.2-10.2,1.3c-4.7,0.2-9,0-13.7,2.4c-3.4,1.7-8.8-0.5-13.4-0.9
		c-1.1-0.1-2.9-0.7-3.2-0.3c-3.9,5.4-9.8,1.8-14.5,3.3c-3.5,1.1-5.6-1.1-7-4.1c-2.2-4.8-5.1-5.9-10.2-3.8c-4,1.7-7.9-1.1-6.9-5.3
		c0.9-3.8,2.9-7.2,4.8-11.6c5.1,6.4,5.8,6.2,10.4,1c1.6-1.8,4.3-2.7,6.5-4.1c1.5-1,3-2.1,4.5-3.2c4.8,1.7,15.7-3.8,17.2-8.5
		c3,0.2,5.9,0.8,8.7,0.5c1.4-0.2,3.3-1.8,3.7-3.2c1.1-3.6,1.6-7.4,2.2-11.2c0.7-4.3,3.8-6.9,8.1-6.4c6.7,0.9,13.3,2.2,20,2.8
		c3,0.3,6-1,9.1-1.3c2.2-0.2,4.9-0.8,6.7,0.1c7,3.2,12.5,1.3,15.8-5.7c0.9-2,2.9-3.6,3.6-5.7c0.6-1.9,0.1-4.1,0.1-5.3
		c3.6-1.2,6.8-2.9,10.2-3.4c3.5-0.5,6.7,1,8.3,4.8c1.9,4.6,4.9,5,7.9,1c2.4-3.3,5.5-3.8,9.2-3c5,1.1,6.4,0.1,7.1-4.7
		c1.2-8,8.6-12.3,15.6-8.4c2.2,1.2,3.4,4.7,4.4,7.3c1.6,4.2,3.4,5,7.9,3.3c4-1.5,7.7-4.3,12.8-3.1c3.8,0.9,8-4.7,8.6-10.4
		c3.7-0.5,7.5-0.9,11.6-1.4c0,5.8-9.7,3.5-7.1,11.3c3.3-0.8,6.7-1.7,10.1-2.6c1.8,0.8,4,1.7,7.5,3.2c-0.6-3.4-1.2-5.3-1.2-7.2
		c0-1.1,0.6-2.6,1.4-3.3c0.7-0.5,2.4-0.4,3.2,0.1c0.6,0.4,0.6,2,0.5,2.9c-0.6,5.1,4.5,10.3,9.4,10.2c1.9-0.1,4.7,0.5,5.7,1.8
		c2.5,3.2,4.8,2.8,7.4,0.8c4.8,5.8,4.8,5.8,7.9,3.2c3,1.3,5.5,2.4,7.8,3.4c-4.9,0.3-10,0.8-15,0.9c-3.5,0.1-6.4,1.8-5.9,5
		c0.4,2.6,2.9,5.4,5.3,7c2.5,1.7,5.8,2,9.6,3.1c-0.8,1.1-1.3,2.5-2.3,3c-5.2,2.8-10.5,5.4-15.8,7.9c-5,2.3-5.3,3.5-4,8.7
		C1420,428.8,1421.2,436.3,1422.8,444.4z"></path>
            <text transform="matrix(1 0 0 1 1320.8462 428.2181)"></text>
        </g>
        <g id="UA-12">
            <g>
                <path id="XMLID_194_" d="M1432.4,392.7c3.1,0.1,6.8-0.7,9.2,0.7c4.1,2.3,6.7,2.2,8-1.1c3.2,0.9,6.4,0.8,8.2,2.4
			c3.6,3.1,10.1,0.3,12.1,6.2c0.1,0.3,0.3,0.8,0.5,0.8c6.2,1,9.2,6.8,14.4,9.4c0.7,0.4,2,0.6,2.2,1.1c1.7,7.1,8.4,4.8,12.7,6.8
			c4.8,2.2,9.8,3.8,15,4.9c2.9,0.6,6.3-0.8,9.2-0.2c7.1,1.3,8.3,8.1,10.9,13.2c1.3,2.5,1.7,5.6,2,8.5c0.3,3.3,0.1,6.7,0.1,9
			c-5.9,2-11,3.8-16.3,5.6c-0.4-0.9-0.9-2.3-1.4-3.6c-6.3-0.7-6.8-0.2-5.7,5.9c0.1,0.8,0.3,1.7,0.1,2.4c-1.7,6.4-1.7,6.4,2.5,11.3
			c-5.7,3.5-5.9,8.4-1,12.7c1.2,1,1.2,3.4,1.8,5.2c0.7,2,1.5,4,2.2,6c0.5-0.1,0.9-0.2,1.4-0.3c-1.1,4.9-2.1,9.9-3.4,15.9
			c-4.5-1.4-9.2-2.2-13.3-4.3c-4.6-2.3-15.2-0.7-18,3.5c-5.3,0.4-8-7.4-14.8-3.9c0.3,1.8,0.7,3.8,1.2,7c-1.4-0.6-2.6-1-3.6-1.6
			c-1.3-0.9-2.5-3-3.6-2.9c-4.5,0.3-10.7-0.2-12.8,2.4c-2.8,3.4-5.9,3.5-9,4.6c-7.5,2.8-10.4,1-11.9-7c-4.2-0.1-8.4-1.8-11.5,3.6
			c-0.9,1.6-5,3-9,0.1c-4.6-3.4-11.1-4.1-17.5-6.2c-0.2-2-0.5-4.9-0.8-7.8c5.9-2.7,5.8-2.7,3.7-9.9c-0.4-1.4-0.4-3-0.2-4.5
			c0.5-4.3,1.4-8.4-0.8-12.9c-1.7-3.5,2.9-9.8,7.2-10.6c4.5-0.8,8.1-2.3,9.5-7.1c0.2-0.6,0.8-1.5,1.2-1.5c4.9,0.5,6.9-3.7,10-6
			c4.5-3.4,5.2-6.9,3.7-12.4c-1.7-6.1-2.1-12.6-2.8-19c-0.1-0.8,1.3-2.5,2.3-2.7c7.7-1.4,13.1-7.1,19.6-10.6c1.1-0.6,2.2-3.4,1.7-4
			c-1.5-1.9-3.5-3.7-5.7-4.7c-3-1.3-6.4-1.8-9.7-2.6C1432.3,393.9,1432.3,393.3,1432.4,392.7z"></path>
                <path id="XMLID_193_" d="M1521.7,353.6c4.5,0.4,8.1,0.6,11.7,1.1c1.8,0.2,3.9,0.5,5.2,1.6c5.9,4.9,11.6,10.1,17.4,15.2
			c0.6,0.5,1.3,1.1,2.1,1.3c7.5,1.4,15.1,2.9,22.7,4c1.5,0.2,3.2-0.7,4.7-1.2c2.1-0.7,4.2-1.6,6.3-2.4c0.5,0.3,1,0.6,1.5,0.9
			c-0.7,2.1-1.4,4.3-2,6.4c-0.7,2.4-1,4.5,2.3,5.5c5.2,1.6,9.6,3.6,9.6,10.6c0,2.2,3.1,5.1,5.5,6.4c5.1,2.7,2.9,7.3,3.8,11
			c0.4,1.7,1.4,4.2,2.7,4.7c5,1.9,8.3-0.4,9.8-5.5c0.6-2.1,2.3-3.9,3.8-6.5c4.5,4.5,9.1,7.1,14.3,2.7c3.4,2.8-1.3,11.6,8.6,9.2
			c-1.1,4.1-2.5,7.5-2.7,10.9s0.8,6.9,1.3,10.7c3.8,0.6,6.5,2.7,6.5,7.3c0,0.8,0.1,2.2-0.3,2.4c-5.5,2.6-2.7,6.9-2.4,10.7
			c0.1,1.2-0.2,2.4-0.3,3.6c-1.5-0.3-3.2-0.3-4.6-0.9c-1.9-0.8-3.4-2.6-5.4-3.1c-7.4-1.9-10.9,1.1-11.2,8.7c-0.2,3.7,2,7.9-2.5,11
			c-0.9,0.6-0.1,3.7-0.1,6.6c-3-0.4-6.3-1.9-8.5-0.9c-5.4,2.6-9-0.4-13.1-2.6c-0.5-0.3-1.3-0.2-1.5-0.2c-2.5-6-4.8-11.7-7.2-17.5
			c-1.3-1.4-2.6-3.6-4.4-4.3c-2.3-0.9-5.6-1.6-7.5-0.6c-4.1,2.1-7.4-0.2-9.4-2.1c-3.9-3.8-8.3-3.1-11.3-1
			c-6.3,4.3-11.9,1.6-17.7-0.1c-2.5-0.7-4.9-2-6-3.3c-1.1-4.5-2.1-9-3.4-13.4c-1.2-4.2-3.4-8.2-4-12.4c-1.2-8.3-8.8-10.5-13.5-9.5
			c-9.1,1.9-13.8-5-20.7-7c-2.9-0.8-4.9-4.3-7.4-6.5c-3.1-2.7-6-5.7-9.4-7.8c-4.4-2.7-4.9-6-3.9-10.6c0.5-2.4-0.7-5-0.7-7.6
			c0-2-0.1-5.3,0.9-5.8c3.6-1.6,3.8-4.7,5.4-7.4c1.2-2,4.3-3.1,6.7-4.3c6.2-2.9,12.6-5.6,18.9-8.3c0.6-0.2,1.8,0,2.2,0.5
			C1518,357.4,1520.4,355.7,1521.7,353.6z"></path>
            </g>
            <text transform="matrix(1 0 0 1 1549.093 435.3901)"></text>
        </g>
        <g id="UA-48">
            <path id="XMLID_202_" d="M1289.8,608.9c1.5-3.6,3.4-7.1,4.5-10.9c0.7-2.4,0.2-5,0.3-7.6c-1.7,1.2-3.5,2.3-5.1,3.5
		c-0.8,0.6-1.5,1.3-2,1.8c-2.2-1.1-4.2-2.2-6.2-3.2c-0.5,0.4-1.1,0.7-1.6,1.1c0.8,3.8,1.6,7.6,2.5,12.3c-4.3,6.4-7.4,8.3-12.1,6.1
		c-1.4-0.7-3.1-3.3-2.8-4.6c1.7-8.3,0.4-15.9-4.4-22.7c-0.9-1.2-2.8-1.7-5.2-3c2.3-0.6,4-1.6,5.7-1.5c5.7,0.4,8.2-3.3,9.7-7.6
		c1.5-4.1,4.3-8.6-1-12.5c-2.5-1.8-4.7-4.1-7.1-6.2c-0.5,0.3-0.9,0.6-1.4,0.8c0.7-1.2,1.6-2.2,2.1-3.5c1.4-4.1-1.8-7.3-6.1-6.9
		c-3.7,0.4-7.5,0.1-11.2-0.4c-1.2-0.2-2.5-2-3.1-3.4c-2.2-5.1-2.8-10.5-1-15.9c1.6-4.7-0.2-8.2-2.6-12.4c-3.1-5.5-6.5-5.1-11.6-4.3
		c-4.5,0.7-9.2-0.3-13.8-0.9c-1.1-0.2-2.8-1.7-2.9-2.8c-0.5-3.3-0.3-6.6-0.5-9.9c-0.1-1.1-0.4-2.9-1.1-3.1c-5.1-2-4.4-6.9-5.7-10.8
		c-1.1-3.2-2.3-6.4-3.9-9.3c-1.7-3-2.3-5.2,1.8-6.4c1-0.3,2.2-0.9,2.8-1.7c1.1-1.7,1.3-4.9,2.6-5.3c2.5-0.9,5.7-0.8,8.4-0.2
		c4.5,1.1,8.7,3.6,12.4-1.8c0.6-0.8,3.9-0.4,5.6,0.4c5.6,2.5,10.9,1.5,15.9-1.3c1-0.6,1.5-2.1,1.9-2.7c6.4-1.5,9.5,2.4,12,7
		c0.4,0.7,1.1,1.6,1.8,1.7c5.4,0.9,10.8,1.7,16.6,2.5c0,0.6,0.2,2.3,0.3,4.6c6.3,1.9,10.2-9.1,16.6-2.9c-3.8,4.6-2,11.3,4,14.4
		c1.5,0.8,2.2,3.5,2.8,5.4c0.3,1-0.6,2.3-0.4,3.3c0.7,6.5,4.4,9.1,10.8,6.7c3.4-1.3,4.7-0.2,6.4,2.1c3.4,4.6,8.4,4.4,10.9-0.6
		c1.7-3.2,2.5-5,6.8-2.2c3.2,2.1,8.2,1.7,12.5,1.9c2.7,0.1,5.5-1.1,8.3-1.3c4.2-0.3,5.6-3.5,6.7-6.4c1.4-3.9,1.8-8.1,2.6-12.2
		c6.5,2,9.1,0.8,12.9-6.4c1.1,1.7,2.1,3,2.9,4.4c1.5,2.9,0.2,6.5,3.5,9.3c1.3,1.1-0.3,5.6-0.5,8.5c-0.1,2.8,0.6,5.8-3.4,6.7
		c-0.7,0.2-1.8,2.8-1.5,3.1c4.1,4.2-2.8,10,2.2,13.8c0.9,0.7,2.5,0.6,4.1,0.9c0.5,1.6,1.2,3.3,1.5,5c0.2,1.5,1.2,2.9-1.6,4.2
		c-1.8,0.8-2.8,4.6-3.1,7.1c-0.1,1.4,2.2,3,3.5,4.4c0.4,0.5,1.6,0.7,1.6,1c0,4,0.5,8.2-0.4,12c-0.4,1.9-3.1,3.8-6.1,2.2
		c-0.4-0.2-1.6,0.1-1.8,0.5c-1.7,4.4-3.5,8.8-4.8,13.3c-0.2,0.6,1.6,2.1,2.7,2.8c1.3,0.9,2.9,1.4,5.3,2.4c-5.1,1-7,3.2-5.9,7.7
		c0.2,0.9-2.6,3.7-4.1,3.7c-4.7,0.2-6.9,1.8-5.2,7.6c-1.9-0.7-3-1.1-4.1-1.5c-3.5-1.3-7-2.8-10.6-3.7c-1.2-0.3-2.8,1.2-4.3,1.8
		c-1.2,0.4-2.4,0.9-3.6,1c-3.5,0.2-7.4-0.6-8.1,4.9c-5.7-3.1-9.5-1.9-11.9,3.8c-0.4,0.9-2.6,1.3-4,1.6c-2.5,0.4-5,0.5-8.4,0.9
		c-2-1.6-0.3-3.5,0.8-5.8c1.6-3.3,2.9-6.9,3.8-10.5c0.3-1.1-0.9-2.6-1.5-3.9c-0.4-0.9-1.5-1.9-1.4-2.7c0.7-4.2-0.7-6.5-3.5-6.4
		c-1.8-3.9-3.2-7-4.5-10.1c-0.5-1.2-0.4-2.6-1-3.7c-0.9-1.7-2-3.2-3.2-4.6c-0.8-1-1.8-2-2.8-2.9c-1.1-0.9-2.9-2.6-3.5-2.3
		c-1.4,0.7-3,2.3-3.2,3.8c-0.7,4.4,2.7,5.9,5.3,6.7c1.1,3.6,2,6.7,2.9,9.7c0,4.2-2.8,8.7,3.6,12.1c1.9,1,2.1,5.4,3.2,8.8
		c-4.7,2-6.4,6.3-4.9,12c0.5,1.9,1.6,3.8,1.6,5.7c-0.1,5.7-2.8,7.4-7.9,4.8c-4.3-2.2-8.5-2.5-12.9-0.8L1289.8,608.9z"></path>
            <text transform="matrix(1 0 0 1 1295.1001 529.0906)"></text>
        </g>
        <g id="UA-51">
            <g>
                <path id="XMLID_197_" d="M1257.3,551.4c-1.3,4.9,1,6.9,5.5,8.8c2.8,1.2,6.3,4.7,6.5,7.4c0.3,4.7-3.5,7.2-8.4,7.4
			c-1.5,0-2.9,0.2-4.4,0.3c-0.7-2.1-1.2-4.4-2.2-6.4c-0.6-1.1-2-1.8-3-2.7c-0.7,1.3-2.3,2.7-2.1,3.9c1.4,8.2,1.1,16.9,8.4,23.3
			c1.8,1.6,1.9,5.2,2.4,8c0.4,2.5,0.5,5,0.4,7.5c-0.1,1.1-0.9,2.7-1.7,3.1c-5.6,2.1-11.3,3.9-17,5.8c-0.6,0.2-1.3,0.2-2.2,0.2
			c-1.1-6.2-2.9-11.8-8.4-15.6c-1.3-0.9-1.7-3.1-2.7-4.6c-0.9-1.3-2-3.3-3.2-3.5c-1.1-0.2-2.6,1.5-3.8,2.3c-0.9-0.3-2.5-1.4-3.7-1.1
			c-0.8,0.2-1.4,2.4-1.5,3.7c-0.2,3.2-0.1,6.5,0,9.7c0,0.9,0.5,2.3,1.1,2.5c4.9,1.8,5.8,6.8,8.7,10.2c1.2,1.4,3.2,2.2,5.6,2.6
			c0.8,2.9,2,5.8,2.3,8.8c0.4,3.5-1.4,5.8-5,6c-4.2,0.3-4.7,2.1-2.9,5.6c0.6,1.1,0.7,3,0.1,4c-2.3,3.9-5,7.6-7.9,11.8
			c-1-1.1-1.8-1.9-2.3-2.8c-3-6-6.1-12-8.9-18.2c-1.4-3.1-3.1-2.9-4.5-1.9c-3.2-1.4-5.9-2.3-8.4-3.7c-2.7-1.5-5.4-3.1-7.7-5.2
			c-2.2-1.9-3.9-4.4-5.8-6.6c0.4-0.6,2.1-2.1,2.1-3.5c-0.1-8-0.4-16-0.9-24c-0.2-2.8-6.4-8.5-9.3-8.5c-2.9,0-4.7-0.7-6.6-3.2
			c-1.5-2-4.9-2.5-6.8-4.3c-1.2-1.2-2.1-4.2-1.4-5.6c1.9-4,0.8-6.9-0.8-10.6c-1.6-3.7-3.6-8.2-0.3-12.5c2.4-3.2,0.7-10.8-2.7-12.8
			c-3.9-2.3-6.5-1.1-10.6,5.5c0.6-8.2-6.1-11-9.5-15.9c-0.4-0.6-1.2-1.2-1.9-1.5c-6.5-2.5-7-4.4-3.3-10.5c1.2-2.1,2-4.6,2.3-7
			c0.5-3.5-0.3-7,2.5-10.3c1-1.2-0.6-4.7-1-7.2c-0.5,0-0.9,0-1.4,0c0.7-0.9,1.7-1.7,1.9-2.7c0.5-1.6,0.8-4.8,0.6-4.9
			c-4.8-1.2-4-5.8-5.7-8.9c-3.2-5.6-8.5-4.8-13.2,2.2c-1.2-1.3-2.4-2.4-3.4-3.4c3.5-4,6.8-7.7,9.7-11c4.5,1.1,10,4.2,14.5,3.1
			c8.3-2.1,16.2,1.4,24.2-0.4c3.1-0.7,4.3-1.4,4.4-4.6c0.1-5.6,2.9-7,8.1-5.3c2.1,0.7,4.8-0.7,8.4-1.3c2.8,6.2,8.9,8.5,15.9,6.4
			c-0.5,3.9-1.1,7.7-1.4,11.6c-0.1,1,0.6,2.6,1.4,2.9c3.8,1.6,4.2,4.9,5.2,8.3c1.8,6.5,4.5,12.7,6.1,19.3c1,3.8,0.4,8.4,5.1,9.8
			c3.2,1,6.8,0.7,10.2,1.1c1.3,0.1,3,0.1,3.7,0.9c3.3,3.8,5.2,3.8,7.7-0.6c0.3,1.1,0.4,2.9,1,3.1c6.2,2.1,4,6.8,3,10.6
			c-2,7.2,1.4,13.3,3,19.7c0.1,0.6,0.7,1.4,1.2,1.5c4.7,1.1,9.4,2.2,14.1,3.2C1257,551,1257.1,551.2,1257.3,551.4z"></path>
                <path id="XMLID_188_" d="M1154.9,738c-5-1.4-10-3-15.1-4.1c-5.8-1.3-11.1,0.1-15.6,4.2c-1.4,1.3-3.3,2-6,3.6
			c0.9-3.6,1.4-6,2.1-8.7c2.8-0.1,5.4-0.2,7.1-0.3c1.6-5.2,3.5-9.8,4.2-14.6c0.5-3-0.5-6.5-1.6-9.4c-0.4-1.1-3.4-1.1-5.2-1.6
			c-0.4,1.6-1.6,3.4-1.1,4.6c1.8,4.5,0.8,8.3-1.5,12.1c-1.2,1.9-1.8,4.2-2.7,6.4c-4.4,0.3-3.3-3.8-4.4-6.1c-0.7-1.4-0.8-3.4-1.9-4.3
			c-1.9-1.6-4.5-1.6-4.9,1.4c-0.6,4.3-0.3,8.8-0.5,13.2c-0.3,6.1,2.4,8.7,8.6,8.1c-2.8,1.7-5.6,3.4-7.6,4.6c-4-0.5-7.8-0.4-11.2-1.6
			c-1.8-0.7-3.4-3.5-3.9-5.7c-1.1-4.9-1.4-10-2.3-14.9c-1-6-2.4-11.9-3.3-17.9c-0.2-0.9,0.7-2.7,1.5-3c2.9-1,4.2-4,6.1-5.2
			c6.3-4.2,4-9.4,3.7-15.1c3.4-1.1,7-2.1,10.6-3.3c4.9-1.6,6.5-4.3,4.6-9c-0.9-2.4-0.7-3.6,0.8-5.6c5.2-6.9,5-8.6-0.8-15.2
			c-1.3-1.5-2.4-17.8-1-18.7c4-2.5,8.2-4.8,13.6-8c-0.4,6.6-0.8,11.9-1.1,17.1c3.9,1.1,17.1-4.9,18.9-8.3c3.2,2.8,6.2,5.9,9.6,8.3
			c3.6,2.4,6.1,0.1,8.2-2.9c0.8-1.2,2.2-2,3.3-3c0.9,1.3,2.3,2.5,2.7,3.9c1.7,5.9,3.3,6.1,9.1,2.9c2.6-1.4,6.3-0.9,9.3-1.2
			c1.7,8,5.3,13.5,12.7,15.6c5.9,1.7,6.1,7.6,8.9,11.6c0.8,1.1,1.1,2.6,1.3,3.2c-4.8,6.6-9.3,12.8-13.9,19c-6-5.6-6-5.6-9.9,2.5
			c-0.3-1.7-0.2-3.4-0.9-4.2c-1.1-1.2-2.9-2.1-4.5-2.2c-0.9-0.1-2.5,1.6-2.7,2.8c-1.3,5.9-2.7,11.5-9.7,13.6
			c-1.1,0.3-1.6,3.5-1.9,5.4c-0.1,1.1,0.8,2.3,1.7,4.7c-4.3-3.2-5.1-6.4-4.4-10.1c0.7-3.8-0.9-6.5-4.2-8.1c-2.3-1.1-4.3-0.7-4.6,2.4
			c-1,8.4-2.1,16.8-2.8,25.2c-0.1,1.8,1.3,3.8,2.3,6.2c-3.6,2.8-0.1,5.9,0.8,9.2C1155.1,737.7,1155,737.8,1154.9,738z"></path>
                <path id="XMLID_180_" d="M1077,749c0-6.4,0-12,0-17.7c2.1-0.3,3.7-0.5,6.1-0.9c0,6.7,0,13.4,0,20.7
			C1080.5,750.2,1078.5,749.5,1077,749z"></path>
                <path id="XMLID_179_" d="M1069.9,735.4c-2.3-0.9-4.6-1.8-6.8-2.7c-0.1-0.6-0.2-1.2-0.2-1.9c2-0.5,4.1-1.7,5.8-1.3
			c1.2,0.3,1.9,2.8,2.9,4.3C1070.9,734.3,1070.4,734.9,1069.9,735.4z"></path>
            </g>
            <text transform="matrix(1 0 0 1 1181.0664 556.6398)"></text>
        </g>
</svg>